<?xml version="1.0" encoding="utf-8"?>
<!-- Generator: Adobe Illustrator 27.5.0, SVG Export Plug-In . SVG Version: 6.00 Build 0)  -->
<svg version="1.1" id="Layer_1" xmlns="http://www.w3.org/2000/svg" xmlns:xlink="http://www.w3.org/1999/xlink" x="0px" y="0px"
	 viewBox="0 0 381.433 509.899" style="enable-background:new 0 0 381.433 509.899;" xml:space="preserve">
<g>
	<g>
		<g>
			<path style="fill:#A24525;" d="M221.277,296.425c0,0,0.029,42.853,5.755,55.436c5.037,11.07,32.439,23.897,32.439,23.897
				s25.923-22.505,13.092-45.725C259.731,306.812,245.306,295.608,221.277,296.425z"/>
			<path style="fill:#A24525;" d="M159.771,296.466c0,0,0.029,42.853-5.681,55.443c-5.023,11.076-32.408,23.94-32.408,23.94
				s-25.953-22.471-13.153-45.708C121.33,306.904,135.74,295.681,159.771,296.466z"/>
			<path style="fill:#B66D4A;" d="M273.596,366.932c0.279-0.455,0.555-0.913,0.828-1.373c-10.626-5.472-32.454-17.158-42.814-25.925
				c-5.523-17.785-3.228-76.73-3.228-76.73l-7.275-0.092c0.027-0.536,0.043-0.829,0.043-0.829l-32.661,0.415l-32.661-0.415
				c0,0,0.017,0.293,0.043,0.829l-7.274,0.092c0,0,2.295,58.945-3.228,76.73c-10.36,8.767-32.188,20.453-42.814,25.925
				c0.273,0.46,0.549,0.918,0.828,1.373c0.019,0.031,0.039,0.061,0.058,0.092c-0.31,0.149-0.607,0.295-0.886,0.437
				c0.689,1.781,1.417,3.55,2.284,5.253c0.975,1.916,2.209,3.725,3.452,5.475c5.255,7.402,11.875,13.79,18.888,19.512
				c3.511,2.864,7.221,5.455,11.084,7.785c5.899,3.998,12.279,7.291,18.976,9.728c7.477,2.72,15.34,4.381,23.288,4.814
				c2.642,0.144,5.302,0.165,7.963,0.078c2.661,0.086,5.32,0.065,7.963-0.078c7.947-0.433,15.811-2.094,23.288-4.814
				c6.697-2.436,13.077-5.73,18.976-9.727c3.863-2.33,7.573-4.921,11.084-7.786c7.013-5.722,13.633-12.11,18.888-19.512
				c1.242-1.75,2.477-3.56,3.452-5.475c0.867-1.703,1.595-3.472,2.284-5.253c-0.279-0.141-0.576-0.287-0.886-0.437
				C273.557,366.993,273.577,366.963,273.596,366.932z"/>
			<path style="opacity:0.28;fill:#BF7859;" d="M148.906,304.344c5.114,4.39,10.182,8.856,15.787,12.615
				c6.515,4.37,13.828,7.675,21.747,8.175c3.916,0.247,7.931-0.207,11.784-0.892c4.036-0.717,8.005-1.801,11.87-3.164
				c6.384-2.253,12.498-5.267,18.241-8.856c-0.984-22.823,0.047-49.318,0.047-49.318l-7.275-0.092
				c0.027-0.536,0.043-0.83,0.043-0.83l-32.661,0.415l-32.661-0.415c0,0,0.017,0.293,0.043,0.83l-7.274,0.092
				C148.596,262.904,149.407,283.72,148.906,304.344z"/>
			<path style="opacity:0.28;fill:#BF7859;" d="M273.596,366.932c0.279-0.455,0.555-0.913,0.828-1.373
				c-8.902-4.584-25.66-13.528-36.957-21.464c0.092,5.599-0.012,11.199-0.704,16.761c-0.529,4.257-1.4,8.471-2.727,12.553
				c-1.168,3.592-2.576,7.236-4.727,10.364c-3.202,4.654-7.778,8.183-12.781,10.723c-5.421,2.751-11.351,4.439-17.338,5.405
				c-6.097,0.983-12.317,1.244-18.476,0.808c-5.579-0.395-11.173-1.337-16.459-3.198c-6.108-2.15-11.843-5.492-16.191-10.348
				c-3.844-4.292-6.409-9.537-7.92-15.071c-1.597-5.849-2.101-11.956-2.143-18.001c-0.021-3.043,0.081-6.084,0.251-9.122
				c-11.251,7.71-27.12,16.173-35.696,20.59c0.273,0.46,0.549,0.918,0.828,1.373c0.019,0.031,0.039,0.061,0.058,0.092
				c-0.31,0.149-0.607,0.295-0.886,0.437c0.689,1.781,1.417,3.55,2.284,5.253c0.975,1.915,2.209,3.725,3.452,5.475
				c5.255,7.402,11.875,13.79,18.888,19.512c3.511,2.864,7.221,5.455,11.084,7.785c5.899,3.998,12.279,7.291,18.976,9.727
				c7.477,2.72,15.34,4.381,23.288,4.814c2.642,0.144,5.302,0.165,7.963,0.078c2.661,0.086,5.32,0.065,7.963-0.078
				c7.947-0.433,15.811-2.094,23.288-4.814c6.697-2.436,13.077-5.729,18.976-9.727c3.863-2.33,7.573-4.921,11.084-7.786
				c7.013-5.722,13.633-12.11,18.888-19.512c1.242-1.75,2.477-3.56,3.452-5.475c0.867-1.703,1.595-3.472,2.284-5.253
				c-0.279-0.141-0.576-0.287-0.886-0.437C273.557,366.993,273.577,366.963,273.596,366.932z"/>
			<path style="fill:#57889F;" d="M374.658,502.251c-4.469-20.485-20.929-93.728-30.563-106.785
				c-11.224-15.211-71.167-40.952-103.613-49.742c0,0,14.478,58.612-49.885,60.257c-69.4,1.248-54.293-59.949-54.293-59.949
				c-32.434,8.833-88.015,34.412-99.219,49.639c-9.578,13.017-25.849,85.75-30.368,106.581H374.658z"/>
			<path style="fill:#57889F;" d="M374.658,502.251c-4.469-20.485-20.929-93.728-30.563-106.785
				c-9.311-12.618-52.144-32.481-84.998-43.904c0.268,10.674-4.438,21.156-9.611,30.233c-2.73,4.79-5.78,9.392-8.999,13.866
				c-3.382,4.7-6.869,9.301-9.994,14.183c-6.341,9.907-11.533,20.509-15.368,31.632c-3.957,11.474-6.636,23.443-7.99,35.504
				c-0.934,8.323-1.285,16.881-0.397,25.27H374.658z"/>
			<path style="fill:#57889F;" d="M170.015,502.251c0.066-0.455,0.136-0.91,0.2-1.364c0.487-3.461,0.944-6.951,1.081-10.447
				c0.137-3.493,0.18-6.996,0.162-10.491c-0.07-13.076-1.615-26.109-5.515-38.62c-3.577-11.476-8.939-22.316-15.393-32.438
				c-6.972-10.934-15.044-21.104-21.478-32.389c-2.97-5.209-5.029-10.846-6.16-16.734c-0.585-3.043-0.936-6.119-1.143-9.206
				c-32.362,11.15-75.022,31.978-84.684,45.108c-9.578,13.017-25.849,85.75-30.368,106.581H170.015z"/>
			<g>
				<path style="fill:crimson;" d="M167.101,502.251c0.741-12.292,2.137-56.921-14.702-78.883
					c-19.641-25.619-48.641-61.455-45.372-69.762l-0.73,0.907c0,0-56.456,20.863-70.06,40.096
					C24.179,411.656,9.013,485.65,5.721,502.251H167.101z"/>
				<path style="fill:crimson;" d="M87.064,373.651c1.488,2.335,3.095,4.591,4.705,6.844c1.639,2.294,3.241,4.615,4.927,6.875
					c3.706,4.965,7.742,9.694,12.258,13.943c4.451,4.187,9.362,7.884,14.24,11.553c9.534,7.172,19.346,14.144,27.561,22.864
					c4.003,4.249,7.62,8.89,10.535,13.955c1.288,2.237,2.434,4.551,3.455,6.92c-2.141-12.199-5.933-24.212-12.5-32.777
					c-19.641-25.619-48.641-61.455-45.372-69.762l-0.73,0.908c0,0-10.566,3.906-23.656,9.893
					C83.635,367.972,85.322,370.916,87.064,373.651z"/>
				<path style="fill:#D8903C;" d="M61.198,502.251c-0.014-0.405-0.03-0.811-0.043-1.216c-0.095-2.829-0.16-5.659-0.219-8.489
					c-0.114-5.518-0.372-11.046-0.162-16.563c0.202-5.317,0.634-10.623,0.821-15.94c0.16-4.541,0.156-9.116-0.378-13.634
					c-0.65,4.593-1.417,9.169-2.131,13.752c-1.484,9.526-2.508,19.139-2.598,28.787c-0.042,4.438,0.089,8.872,0.287,13.304H61.198z"
					/>
				<path style="fill:crimson;" d="M154.743,424.836c-2.332-5.533-4.974-10.906-8.139-16.013c-2.926-4.721-6.03-9.325-9.181-13.897
					c-4.608-6.686-9.371-13.348-13.392-20.422c-0.562-0.988-1.103-1.988-1.634-2.994c-0.379-1.386-0.807-2.747-1.285-4.101
					c-0.518-1.466-0.888-2.942-1.154-4.473c-0.553-3.19-0.659-6.424-0.631-9.655c0.027-3.125,0.23-6.256,0.741-9.341
					c0.496-2.998,1.373-5.874,2.427-8.718c1.872-5.048,4.102-9.96,6.813-14.614c2.672-4.588,5.827-8.887,9.518-12.708
					c1.902-1.97,3.954-3.784,6.097-5.488c1.377-1.095,2.812-2.133,4.32-3.046c-0.026-1.096-0.036-2.191,0.014-3.283
					c-0.98,0.117-1.957,0.254-2.927,0.435c-2.738,0.51-5.427,1.283-8.05,2.216c-5.204,1.851-10.16,4.427-14.731,7.523
					c-4.378,2.965-8.5,6.451-12.032,10.392c-3.476,3.879-6.427,8.34-7.989,13.344c-0.223,0.714-0.416,1.434-0.593,2.158
					c-1.404,2.004-2.853,3.971-4.548,5.747c-3.748,3.927-8.55,6.77-11.867,11.12c-6.037,7.916-1.183,18.134,3.699,25.261
					c2.818,4.114,6.086,7.923,9.454,11.591c3.973,4.327,8.193,8.431,12.615,12.298c4.426,3.871,9.116,7.359,13.801,10.902
					c4.779,3.614,9.415,7.427,13.847,11.462c0.052,0.047,0.102,0.096,0.154,0.143c2.497,1.92,4.951,3.896,7.363,5.921
					c4.324,3.631,8.587,7.34,12.491,11.425C158.336,433.578,156.574,429.181,154.743,424.836z"/>
				<path style="fill:crimson;" d="M99.333,339.082c0.179-0.072,0.389,0.079,0.436,0.248c1.118,4.008,2.292,8,3.58,11.957
					c2.189,6.726,4.714,13.35,7.808,19.715c0.473,0.972,0.963,1.936,1.461,2.894c-0.549-1.149-1.083-2.305-1.587-3.476
					c-2.624-6.098-4.619-12.515-5.322-19.136c-0.641-6.032-0.211-12.326,2.024-18.009c2.061-5.241,5.364-10.022,9.447-13.893
					c4.017-3.808,8.947-6.849,14.42-7.959c0.342-0.069,0.599,0.327,0.345,0.593c-0.389,0.408-0.768,0.825-1.134,1.254
					c-3.076,3.598-5.302,7.878-6.967,12.288c-1.663,4.405-2.8,9.001-3.59,13.639c-0.445,2.613-0.774,5.223-0.801,7.877
					c-0.007,0.678,0.004,1.356,0.03,2.034c0.116-1.731,0.302-3.457,0.586-5.169c0.496-2.998,1.373-5.874,2.427-8.718
					c1.872-5.048,4.102-9.96,6.813-14.614c2.672-4.588,5.827-8.887,9.518-12.708c1.902-1.97,3.954-3.784,6.097-5.488
					c1.377-1.095,2.812-2.133,4.32-3.046c-0.026-1.096-0.036-2.191,0.014-3.283c-0.98,0.117-1.957,0.254-2.927,0.435
					c-2.738,0.51-5.427,1.283-8.05,2.216c-5.204,1.851-10.16,4.427-14.731,7.523c-4.378,2.965-8.5,6.451-12.032,10.392
					c-3.476,3.879-6.427,8.34-7.989,13.344c-0.223,0.714-0.416,1.434-0.593,2.158c-1.404,2.004-2.853,3.971-4.548,5.747
					c-1.305,1.367-2.738,2.603-4.192,3.817C95.83,340.69,97.548,339.801,99.333,339.082z"/>
			</g>
			<g>
				<path style="fill:crimson;" d="M375.711,502.251c-3.4-17.005-18.586-90.427-30.616-107.386
					c-13.63-19.215-70.113-40.003-70.113-40.003l-0.732-0.906c3.28,8.302-25.672,44.177-45.279,69.822
					c-16.62,21.738-15.385,65.609-14.622,78.473H375.711z"/>
				<path style="fill:crimson;" d="M215.781,461.232c0.569-1.323,1.161-2.635,1.782-3.934c2.511-5.252,5.54-10.088,9.393-14.464
					c7.757-8.809,17.532-15.493,26.73-22.668c9.701-7.568,18.686-16.098,26.622-25.506c7.601-9.011,14.165-18.886,19.329-29.485
					c-13.549-6.224-24.655-10.312-24.655-10.312l-0.732-0.906c3.28,8.302-25.672,44.177-45.279,69.822
					C221.581,433.443,217.721,447.485,215.781,461.232z"/>
				<path style="fill:#D8903C;" d="M320.512,475.81c0.217,5.517-0.033,11.045-0.14,16.564c-0.055,2.83-0.116,5.66-0.208,8.49
					c-0.015,0.462-0.033,0.926-0.048,1.388h4.421c0.197-4.491,0.326-8.985,0.277-13.483c-0.104-9.647-1.14-19.26-2.637-28.783
					c-0.72-4.582-1.494-9.157-2.149-13.749c-0.528,4.519-0.525,9.094-0.36,13.635C319.864,465.188,320.302,470.493,320.512,475.81z"
					/>
				<path style="fill:crimson;" d="M294.596,348.878c-3.323-4.345-8.129-7.182-11.882-11.104c-1.697-1.773-3.149-3.738-4.556-5.741
					c-0.178-0.724-0.371-1.444-0.595-2.157c-1.569-5.002-4.526-9.459-8.007-13.333c-3.537-3.936-7.664-7.417-12.046-10.376
					c-4.575-3.09-9.535-5.659-14.741-7.503c-2.624-0.93-5.314-1.699-8.052-2.205c-1.323-0.245-2.655-0.429-3.994-0.561
					c-0.934-0.092-1.87-0.111-2.806-0.124c-0.011,0.528-0.03,1.055-0.053,1.583c0.349,0.13,0.694,0.269,1.035,0.418
					c2.624,1.15,4.995,2.803,7.232,4.576c2.145,1.701,4.199,3.513,6.104,5.48c3.696,3.817,6.857,8.111,9.535,12.695
					c2.717,4.651,4.954,9.56,6.833,14.605c1.059,2.843,1.939,5.717,2.439,8.715c0.515,3.085,0.722,6.215,0.753,9.34
					c0.032,3.231-0.07,6.465-0.619,9.656c-0.263,1.531-0.632,3.008-1.147,4.474c-0.477,1.355-0.902,2.717-1.28,4.103
					c-0.529,1.006-1.069,2.007-1.63,2.996c-4.011,7.078-8.765,13.747-13.364,20.439c-3.145,4.576-6.243,9.185-9.163,13.909
					c-3.158,5.111-5.793,10.487-8.117,16.023c-1.826,4.348-3.581,8.747-5.183,13.191c3.898-4.09,8.157-7.805,12.476-11.441
					c2.409-2.028,4.86-4.008,7.355-5.931c0.052-0.047,0.102-0.096,0.154-0.143c4.426-4.041,9.057-7.86,13.831-11.48
					c4.68-3.55,9.366-7.043,13.787-10.92c4.417-3.873,8.631-7.982,12.598-12.315c3.364-3.673,6.627-7.486,9.439-11.604
					C295.803,367.01,300.644,356.786,294.596,348.878z"/>
				<path style="fill:crimson;" d="M236.131,302.351c2.145,1.701,4.199,3.513,6.104,5.48c3.696,3.817,6.857,8.111,9.535,12.695
					c0.094,0.161,0.183,0.324,0.276,0.486c-0.142-0.905-0.273-1.812-0.37-2.723c-0.205-1.922-0.496-4.646,1.781-5.391
					c1.887-0.618,3.967,0.599,5.456,1.638c4.103,2.861,7.476,6.94,10.438,10.931c4.663,6.282,6.501,14.633,6.231,22.342
					c-0.158,4.506-1.077,8.857-2.364,13.164c-0.437,1.463-0.912,2.914-1.422,4.352c0.04-0.062,0.077-0.12,0.105-0.169
					c0.411-0.724,0.839-1.439,1.264-2.154c0.971-1.631,1.964-3.25,2.888-4.907c0.933-1.672,1.581-3.489,2.369-5.231
					c0.506-1.119,1.043-2.232,1.69-3.278c0.514-0.83,1.11-1.676,1.916-2.248c0.692-0.491,1.628-0.749,2.457-0.883
					c0.808-0.13,1.622-0.126,2.426,0.027c1.607,0.306,3.036,1.208,4.223,2.305c2.807,2.593,4.583,6.249,5.943,9.761
					c0.081,0.208,0.158,0.42,0.237,0.63c0.38-3.573-0.29-7.123-2.719-10.299c-3.323-4.345-8.129-7.182-11.882-11.104
					c-1.697-1.773-3.149-3.738-4.556-5.741c-0.178-0.724-0.371-1.444-0.595-2.157c-1.569-5.002-4.526-9.459-8.007-13.333
					c-3.537-3.936-7.664-7.417-12.046-10.376c-4.575-3.09-9.535-5.659-14.741-7.503c-2.624-0.93-5.314-1.699-8.052-2.205
					c-1.323-0.245-2.655-0.429-3.994-0.561c-0.934-0.092-1.87-0.111-2.806-0.124c-0.011,0.528-0.03,1.055-0.053,1.583
					c0.349,0.13,0.694,0.269,1.035,0.418C231.523,298.924,233.895,300.578,236.131,302.351z"/>
			</g>
		</g>
		<g>
			<path style="fill:#D8D9DA;" d="M151.194,424.269c-0.265-0.458-0.568-0.891-0.926-1.276c-0.806-0.869-2.13-1.484-3.288-0.901
				c-0.816,0.411-1.082,1.36-1.17,2.255c3.507,12.118,2.715,25.781,1.837,38.099c-0.092,1.29-0.201,2.578-0.317,3.865
				c-0.605,3.911-1.242,7.818-1.807,11.734c-0.52,3.602-0.948,7.193-1.076,10.831c-0.128,1.264-0.212,2.531-0.215,3.798
				c-0.002,0.868-0.028,2.006,0.104,3.106c0.093,1.292,0.306,2.555,0.736,3.732c0.728,1.992,4.157,0.494,4.028-1.305
				c-0.083-1.157-0.095-2.046-0.635-3.03c-0.403-3.076,0.038-6.527,0.224-9.426c0.051-0.793,0.118-1.585,0.192-2.376
				c0.165-0.957,0.329-1.914,0.476-2.874c0.592-3.865,1.103-7.743,1.52-11.63c1.172-7.649,2.339-15.308,2.729-23.043
				c0.331-6.573,0.539-14.125-1.924-20.362C151.559,425.152,151.394,424.738,151.194,424.269z"/>
			<path style="fill:#D8D9DA;" d="M151.682,425.464c-0.123-0.312-0.288-0.726-0.489-1.195c-0.21-0.362-0.452-0.7-0.716-1.019
				c0.366,0.81,0.638,1.668,0.856,2.48c0.559,2.077,0.836,4.23,1.009,6.371c0.216,2.685,0.212,5.383,0.149,8.074
				c-0.082,3.548-0.323,7.091-0.685,10.621c-0.738,7.195-1.923,14.333-2.881,21.5c-0.478,3.575-0.897,7.16-1.172,10.757
				c-0.121,1.589-0.242,3.177-0.21,4.771c0.027,1.376,0.103,2.792-0.202,4.146c-0.22,0.978-0.734,2.139-1.678,2.617
				c-0.455,0.23-0.942,0.242-1.409,0.126c0.016,0.353,0.038,0.709,0.081,1.065c0.093,1.292,0.306,2.555,0.736,3.732
				c0.728,1.992,4.157,0.494,4.028-1.305c-0.083-1.157-0.095-2.046-0.635-3.03c-0.403-3.076,0.038-6.527,0.224-9.426
				c0.051-0.793,0.118-1.585,0.192-2.376c0.165-0.957,0.329-1.914,0.476-2.874c0.592-3.865,1.103-7.743,1.52-11.63
				c1.172-7.649,2.339-15.308,2.729-23.043C153.937,439.253,154.145,431.701,151.682,425.464z"/>
			<path style="fill:#D8D9DA;" d="M150.843,494.837c-0.122-0.337-0.376-0.553-0.679-0.667c-0.511-0.9-2.083-0.129-2.677,0.247
				c-0.856,0.542-1.626,1.259-2.273,2.028c-1.032,1.227-2.724,3.509-1.466,5.097c1.541,1.946,4.017-0.598,4.879-1.876
				c0.493-0.731,0.912-1.511,1.32-2.29C150.305,496.693,151.126,495.616,150.843,494.837z"/>
			<path style="fill:#FFFFFF;" d="M151.462,497.666c-0.265-0.464-0.951-0.521-1.409-0.424c-1.904,0.405-4.072-0.902-5.465-2.128
				c-0.521-0.458-1.36,0.221-1.551,0.695c-0.581,1.444,0.567,2.687,1.721,3.412c1.568,0.984,3.279,1.367,5.102,0.979
				c0.703-0.15,1.494-0.728,1.704-1.45C151.688,498.324,151.679,498.046,151.462,497.666z"/>
		</g>
		<g>
			<path style="fill:#D8D9DA;" d="M233.534,424.269c0.265-0.458,0.568-0.891,0.925-1.276c0.806-0.869,2.13-1.484,3.288-0.901
				c0.816,0.411,1.082,1.36,1.169,2.255c-3.507,12.118-2.715,25.781-1.837,38.099c0.092,1.29,0.201,2.578,0.317,3.865
				c0.605,3.911,1.241,7.818,1.807,11.734c0.52,3.602,0.948,7.193,1.076,10.831c0.128,1.264,0.212,2.531,0.215,3.798
				c0.002,0.868,0.028,2.006-0.104,3.106c-0.093,1.292-0.306,2.555-0.736,3.732c-0.728,1.992-4.157,0.494-4.029-1.305
				c0.083-1.157,0.095-2.046,0.635-3.03c0.403-3.076-0.038-6.527-0.224-9.426c-0.051-0.793-0.118-1.585-0.192-2.376
				c-0.165-0.957-0.329-1.914-0.476-2.874c-0.592-3.865-1.103-7.743-1.519-11.63c-1.172-7.649-2.339-15.308-2.729-23.043
				c-0.331-6.573-0.539-14.125,1.924-20.362C233.168,425.152,233.333,424.738,233.534,424.269z"/>
			<path style="fill:#D8D9DA;" d="M233.045,425.464c0.123-0.312,0.288-0.726,0.489-1.195c0.209-0.362,0.452-0.7,0.716-1.019
				c-0.366,0.81-0.638,1.668-0.856,2.48c-0.559,2.077-0.836,4.23-1.009,6.371c-0.216,2.685-0.212,5.383-0.149,8.074
				c0.082,3.548,0.323,7.091,0.686,10.621c0.738,7.195,1.922,14.333,2.88,21.5c0.478,3.575,0.897,7.16,1.172,10.757
				c0.121,1.589,0.242,3.177,0.21,4.771c-0.027,1.376-0.103,2.792,0.202,4.146c0.221,0.978,0.734,2.139,1.678,2.617
				c0.455,0.23,0.942,0.242,1.409,0.126c-0.016,0.353-0.038,0.709-0.081,1.065c-0.093,1.292-0.306,2.555-0.736,3.732
				c-0.728,1.992-4.157,0.494-4.029-1.305c0.083-1.157,0.095-2.046,0.635-3.03c0.403-3.076-0.038-6.527-0.224-9.426
				c-0.051-0.793-0.118-1.585-0.192-2.376c-0.165-0.957-0.329-1.914-0.476-2.874c-0.592-3.865-1.103-7.743-1.519-11.63
				c-1.172-7.649-2.339-15.308-2.729-23.043C230.79,439.253,230.582,431.701,233.045,425.464z"/>
			<path style="fill:#D8D9DA;" d="M234.78,497.376c0.408,0.779,0.827,1.559,1.32,2.29c0.863,1.278,3.339,3.822,4.879,1.876
				c1.258-1.588-0.434-3.871-1.466-5.097c-0.646-0.768-1.417-1.486-2.273-2.028c-0.594-0.376-2.166-1.147-2.677-0.247
				c-0.303,0.114-0.557,0.33-0.679,0.667C233.602,495.616,234.422,496.693,234.78,497.376z"/>
			<path style="fill:#FFFFFF;" d="M233.266,497.666c0.265-0.464,0.951-0.521,1.409-0.424c1.904,0.405,4.072-0.902,5.465-2.128
				c0.521-0.458,1.36,0.221,1.551,0.695c0.581,1.444-0.567,2.687-1.721,3.412c-1.568,0.984-3.279,1.367-5.103,0.979
				c-0.703-0.15-1.494-0.728-1.704-1.45C233.04,498.324,233.049,498.046,233.266,497.666z"/>
		</g>
	</g>
	<g>
		<g>
			<g>
				<g>
					<path style="fill:#B56D51;" d="M307.743,198.922c1.625-6.494-1.472-13.369-5.223-18.536c-3.488-4.804-8.428-9.763-14.73-9.975
						c-5.798-0.195-11.056,3.302-15.117,7.114c-1.599,1.501-3.098,3.121-4.494,4.828c-2.62,8.992-6.052,28.502-6.917,32.021
						c-1.018,4.142-2.007,8.305-2.6,12.537c-0.578,4.121-0.865,8.499-0.003,12.604c1.171,5.57,7.45,5.903,11.907,5.113
						c2.379-0.421,4.768-1.16,6.934-2.264c2.926-1.49,4.962-4.068,6.506-6.965c1.592-2.989,2.654-6.224,4.132-9.266
						c1.745-3.592,4.27-6.683,6.913-9.61c3.465-3.838,7.329-7.507,10.258-11.829C306.335,202.854,307.238,200.943,307.743,198.922z"
						/>
					<path style="opacity:0.64;fill:#EB936D;" d="M279.685,226.008c1.361-6.534,2.677-13.069,4.217-19.564
						c1.548-6.531,3.207-13.035,4.841-19.545c1.287-5.13,2.554-10.265,3.741-15.419c-1.469-0.625-3.034-1.013-4.694-1.069
						c-5.798-0.195-11.056,3.302-15.117,7.114c-1.599,1.501-3.098,3.12-4.494,4.828c-2.62,8.992-6.052,28.502-6.917,32.021
						c-1.018,4.142-2.007,8.305-2.6,12.537c-0.578,4.121-0.865,8.499-0.003,12.604c1.171,5.57,7.45,5.903,11.907,5.113
						c1.9-0.336,3.805-0.88,5.599-1.645C277.269,237.311,278.507,231.665,279.685,226.008z"/>
					<path style="opacity:0.65;fill:#92422B;" d="M300.834,192.627c-0.126-1.192-0.242-2.382-0.428-3.566
						c-0.346-2.205-0.936-4.638-2.353-6.422c-1.186-1.493-2.905-2.342-4.785-1.741c-1.949,0.624-3.52,2.254-4.802,3.78
						c-1.467,1.746-2.737,3.653-3.914,5.603c-1.204,1.995-2.396,4.035-3.283,6.194c-0.634,1.545-1.111,3.194-1.203,4.869
						c-0.094,1.715,0.316,3.328,0.941,4.914c0.556,1.413,1.255,2.809,2.209,3.996c0.381,0.474,0.779,0.935,1.146,1.42
						c0.354,0.469,0.902,1.124,0.92,1.746c0.029,1.059-1.525,2.153-2.212,2.773c-1.124,1.012-2.17,1.985-3.045,3.227
						c-0.964,1.368-1.799,2.861-2.282,4.47c-0.51,1.698-0.567,3.307-0.011,4.999c0.095,0.29,0.574,0.062,0.567-0.184
						c-0.045-1.506,0.057-3.127,0.477-4.578c0.161-0.557,0.379-1.092,0.62-1.615c0.537,0.427,1.408,0.587,2.003,0.593
						c0.95,0.009,1.884-0.311,2.713-0.755c1.793-0.961,3.131-2.404,4.466-3.903c0.135-0.152-0.042-0.321-0.194-0.191
						c-1.309,1.121-2.652,2.313-4.147,3.182c-0.699,0.406-1.496,0.751-2.316,0.779c-0.406,0.014-0.803-0.048-1.184-0.192
						c-0.309-0.117-0.577-0.309-0.871-0.442c0.279-0.502,0.578-0.994,0.904-1.467c0.74-1.074,1.579-1.949,2.556-2.806
						c0.902-0.792,1.852-1.564,2.583-2.525c0.582-0.765,0.901-1.595,0.548-2.534c-0.435-1.158-1.297-2.098-2.031-3.072
						c-0.895-1.186-1.515-2.579-2.023-3.968c-0.582-1.588-0.898-3.135-0.7-4.83c0.33-2.814,1.707-5.377,3.093-7.799
						c0.956-1.67,1.956-3.316,3.059-4.894c1.167-1.668,2.465-3.395,4.114-4.618c1.359-1.008,2.65-1.263,4.044-0.156
						c1.838,1.459,2.46,4.016,2.986,6.182c0.555,2.285,1.003,4.581,1.626,6.849c0.094,0.342,0.689,0.037,0.611-0.268
						C300.98,194.68,300.941,193.648,300.834,192.627z"/>
				</g>
				<g>
					<path style="fill:#B56D51;" d="M72.418,198.922c-1.624-6.494,1.472-13.369,5.224-18.536c3.488-4.804,8.428-9.763,14.73-9.975
						c5.798-0.195,11.056,3.302,15.117,7.114c1.599,1.501,3.098,3.121,4.494,4.828c2.62,8.992,6.052,28.502,6.917,32.021
						c1.018,4.142,2.007,8.305,2.6,12.537c0.578,4.121,0.865,8.499,0.003,12.604c-1.171,5.57-7.45,5.903-11.907,5.113
						c-2.379-0.421-4.768-1.16-6.934-2.264c-2.926-1.49-4.962-4.068-6.506-6.965c-1.592-2.989-2.654-6.224-4.132-9.266
						c-1.745-3.592-4.27-6.683-6.913-9.61c-3.465-3.838-7.329-7.507-10.258-11.829C73.827,202.854,72.924,200.943,72.418,198.922z"
						/>
					<path style="opacity:0.64;fill:#EB936D;" d="M121.5,226.911c-0.594-4.233-1.582-8.395-2.6-12.537
						c-0.865-3.519-4.297-23.029-6.917-32.021c-1.396-1.708-2.895-3.327-4.494-4.828c-4.061-3.813-9.319-7.309-15.117-7.114
						c-0.76,0.026-1.499,0.122-2.219,0.276c2.65,3.283,4.413,7.275,5.663,11.279c1.755,5.621,2.601,11.486,3.296,17.319
						c0.814,6.83,1.563,13.663,2.63,20.46c1.224,7.793,2.784,15.542,4.938,23.134c0.11,0.389,0.229,0.776,0.343,1.164
						c0.852,0.238,1.713,0.433,2.573,0.585c4.457,0.79,10.737,0.456,11.907-5.113C122.365,235.411,122.078,231.032,121.5,226.911z"
						/>
					<path style="opacity:0.65;fill:#92422B;" d="M79.328,192.627c0.126-1.192,0.242-2.382,0.428-3.566
						c0.346-2.205,0.936-4.638,2.353-6.422c1.186-1.493,2.906-2.342,4.785-1.741c1.949,0.624,3.52,2.254,4.802,3.78
						c1.467,1.746,2.737,3.653,3.914,5.603c1.204,1.995,2.396,4.035,3.283,6.194c0.634,1.545,1.111,3.194,1.203,4.869
						c0.094,1.715-0.316,3.328-0.941,4.914c-0.557,1.413-1.255,2.809-2.209,3.996c-0.381,0.474-0.779,0.935-1.146,1.42
						c-0.354,0.469-0.902,1.124-0.92,1.746c-0.029,1.059,1.524,2.153,2.212,2.773c1.124,1.012,2.17,1.985,3.045,3.227
						c0.963,1.368,1.799,2.861,2.282,4.47c0.51,1.698,0.567,3.307,0.011,4.999c-0.095,0.29-0.574,0.062-0.567-0.184
						c0.045-1.506-0.057-3.127-0.477-4.578c-0.161-0.557-0.379-1.092-0.62-1.615c-0.537,0.427-1.408,0.587-2.003,0.593
						c-0.95,0.009-1.884-0.311-2.713-0.755c-1.793-0.961-3.131-2.404-4.466-3.903c-0.135-0.152,0.042-0.321,0.194-0.191
						c1.309,1.121,2.653,2.313,4.147,3.182c0.699,0.406,1.496,0.751,2.316,0.779c0.406,0.014,0.803-0.048,1.183-0.192
						c0.309-0.117,0.577-0.309,0.871-0.442c-0.279-0.502-0.578-0.994-0.904-1.467c-0.74-1.074-1.579-1.949-2.556-2.806
						c-0.902-0.792-1.852-1.564-2.583-2.525c-0.582-0.765-0.901-1.595-0.549-2.534c0.435-1.158,1.297-2.098,2.031-3.072
						c0.895-1.186,1.515-2.579,2.023-3.968c0.582-1.588,0.898-3.135,0.7-4.83c-0.33-2.814-1.707-5.377-3.093-7.799
						c-0.955-1.67-1.956-3.316-3.059-4.894c-1.167-1.668-2.465-3.395-4.114-4.618c-1.359-1.008-2.65-1.263-4.044-0.156
						c-1.838,1.459-2.46,4.016-2.986,6.182c-0.555,2.285-1.003,4.581-1.626,6.849c-0.094,0.342-0.689,0.037-0.611-0.268
						C79.182,194.68,79.22,193.648,79.328,192.627z"/>
				</g>
				<path style="fill:#B56D51;" d="M279.413,138.738c-4.258-57.262-82.628-68.06-82.628-68.06l-12.878,0.008
					c0,0-78.355,10.902-82.537,68.17c-4.181,57.268,6.099,107.293,13.342,120.549c7.242,13.257,45.242,49.399,53.081,53.01
					c4.023,1.853,17.1,3.605,17.1,3.605c0.38,0,2.563-0.002,5.617-0.118c3.053,0.112,5.596-0.308,5.596-0.308
					c6.062-0.444,13.096-1.351,17.116-3.21c7.834-3.622,45.786-39.815,53.01-53.081
					C273.457,246.039,283.671,196.001,279.413,138.738z"/>
				<path style="opacity:0.64;fill:#EB936D;" d="M200.711,236.571c-4.804-0.92-9.901-1.809-14.755-0.682
					c-1.871,0.434-3.722,0.929-5.618,1.253c-2.168,0.371-4.674,0.769-6.821,0.083c-0.002-0.001-0.004-0.001-0.006-0.002
					c0.975,1.271,2.193,2.358,3.57,3.214c2.653,1.65,5.752,2.533,8.839,2.895c3.302,0.387,6.68,0.216,9.929-0.486
					c3.059-0.661,6.068-1.794,8.64-3.602c0.842-0.592,1.632-1.267,2.333-2.019C204.784,237.429,202.47,236.908,200.711,236.571z"/>
				<path style="opacity:0.23;fill:#EA95A2;" d="M213.477,262.195c-6.68-1.014-13.403-1.796-20.159-2.024
					c-3.343-0.113-6.691-0.09-10.032,0.09c-1.689,0.091-3.376,0.223-5.059,0.395c-1.044,0.107-2.1,0.193-3.131,0.398
					c-3.692,0.733-7.257,2.003-10.96,2.705c-1.778,0.337-3.632,0.619-5.445,0.456c-0.085-0.008-0.17-0.02-0.255-0.03
					c0.044,0.038,0.09,0.076,0.134,0.114c5.059,4.365,10.062,9.112,16.337,11.682c5.288,2.165,11.171,2.803,16.845,2.623
					c5.964-0.19,11.955-1.328,17.51-3.528c2.611-1.034,5.141-2.325,7.443-3.937c2.298-1.609,4.378-3.505,6.526-5.302
					c1.167-0.976,2.364-1.928,3.622-2.786c-1.317,0.142-2.645,0.202-3.971,0.181C219.711,263.181,216.604,262.67,213.477,262.195z"
					/>
				<g>
					<path style="fill:#28292C;" d="M218.118,168.776c8.979-3.374,18.273-4.522,27.518-4.983c6.94-0.346,14.443-0.047,20.713,3.488
						c-0.84-1.6-1.857-3.057-3.061-4.309c-5.371-5.581-12.881-6.846-19.867-6.983c-4.495-0.088-8.995,0.428-13.493,0.743
						c-3.66,0.256-7.347,0.571-10.954,1.564c-2.696,1.792-5.169,4.05-7.325,6.814c-2.412,3.093-4.367,6.624-6.228,10.215
						C209.454,172.576,213.729,170.425,218.118,168.776z"/>
					<g>
						<path style="fill:#FFFFFF;" d="M260.422,180.512c-0.01-0.198-0.089-0.369-0.298-0.424c-3.718-0.985-7.615-1.335-11.441-1.624
							c-3.73-0.281-7.479-0.356-11.212-0.087c-3.779,0.273-7.545,0.877-11.16,2.033c-3.154,1.008-6.278,2.401-8.453,4.994
							c-1.192,1.422-2.153,3.124-3.044,4.747c-0.062,0.114-0.123,0.23-0.185,0.346c-0.156,0.044-0.305,0.134-0.374,0.26
							c-1.001,1.818-1.263,3.836-1.857,5.798c-0.059,0.194-0.036,0.405,0.143,0.53c7.49,5.202,16.773,7.074,25.781,6.43
							c4.133-0.295,8.436-1.073,12.076-3.148c3.181-1.814,5.652-4.731,7.32-7.959C259.604,188.762,260.621,184.624,260.422,180.512z
							"/>
						<g>
							<g>
								<g>
									<g>
										<path style="fill:#92422B;" d="M245.99,178.123c-6.715-0.802-13.884-1.014-20.376,1.17
											c-1.155,1.489-2.016,3.231-2.454,5.176c-1.62,7.196,3.033,14.314,10.393,15.898c7.361,1.584,14.641-2.965,16.261-10.161
											c1.008-4.478-0.415-8.923-3.405-12.026C246.27,178.163,246.13,178.14,245.99,178.123z"/>
										<path style="fill:#1A1716;" d="M238.672,177.635c-0.138-0.03-0.275-0.044-0.412-0.068
											c-1.362-0.02-2.724,0.011-4.079,0.104c-3.689,0.845-6.748,3.67-7.617,7.53c-1.206,5.359,2.258,10.659,7.739,11.838
											c5.481,1.18,10.902-2.208,12.108-7.567C247.618,184.115,244.153,178.815,238.672,177.635z"/>
										<path style="fill:#FFFFFF;" d="M234.786,177.633c-1.799,0.099-3.588,0.305-5.344,0.653
											c-0.425,0.479-0.737,1.066-0.887,1.729c-0.478,2.122,0.894,4.221,3.065,4.688c2.171,0.467,4.318-0.875,4.795-2.997
											C236.777,180.104,236.082,178.516,234.786,177.633z"/>
										<path style="fill:#FFFFFF;" d="M228.102,185.878c-0.141,0.627-0.775,1.023-1.416,0.885
											c-0.641-0.138-1.046-0.758-0.905-1.384c0.141-0.627,0.775-1.023,1.416-0.885
											C227.838,184.632,228.243,185.252,228.102,185.878z"/>
									</g>
								</g>
							</g>
						</g>
						<path style="fill:#501C04;" d="M262.82,180.346c-1.015-0.417-2.099-0.615-3.129-0.987c-1.058-0.382-2.111-0.728-3.193-1.036
							c-2.131-0.607-4.262-1.046-6.456-1.356c-4.045-0.572-8.194-0.932-12.281-0.869c-4.107,0.063-8.274,0.647-12.085,2.24
							c-3.832,1.601-7.119,4.204-9.58,7.547c-1.202,1.633-2.19,3.46-3.066,5.286c-0.848,1.768-1.563,3.707-0.899,5.652
							c0.11,0.324,0.53,0.03,0.572-0.186c0.335-1.73,1.249-3.428,2.109-4.949c0.848-1.5,1.787-2.989,2.798-4.384
							c2.108-2.907,4.873-5.23,8.18-6.641c7.121-3.039,14.879-2.188,22.368-1.521c2.39,0.213,4.772,0.507,7.154,0.804
							c1.206,0.151,2.406,0.316,3.614,0.44c1.215,0.125,2.4,0.441,3.618,0.539C262.821,180.947,263.177,180.492,262.82,180.346z"/>
					</g>
				</g>
				<g>
					<path style="fill:#28292C;" d="M162.65,168.776c-8.979-3.374-18.273-4.522-27.518-4.983
						c-6.941-0.346-14.443-0.047-20.713,3.488c0.84-1.6,1.857-3.057,3.061-4.309c5.372-5.581,12.881-6.846,19.867-6.983
						c4.495-0.088,8.995,0.428,13.493,0.743c3.66,0.256,7.347,0.571,10.954,1.564c2.696,1.792,5.169,4.05,7.325,6.814
						c2.412,3.093,4.367,6.624,6.228,10.215C171.313,172.576,167.038,170.425,162.65,168.776z"/>
					<g>
						<path style="fill:#FFFFFF;" d="M123.048,192.408c1.668,3.228,4.14,6.145,7.32,7.959c3.64,2.075,7.943,2.853,12.076,3.148
							c9.007,0.643,18.291-1.228,25.781-6.43c0.179-0.124,0.202-0.335,0.143-0.53c-0.594-1.962-0.855-3.98-1.857-5.798
							c-0.07-0.126-0.218-0.216-0.374-0.26c-0.061-0.115-0.122-0.232-0.185-0.346c-0.891-1.623-1.851-3.325-3.044-4.747
							c-2.175-2.593-5.299-3.986-8.453-4.994c-3.615-1.156-7.38-1.76-11.16-2.033c-3.733-0.269-7.482-0.194-11.212,0.087
							c-3.826,0.288-7.723,0.639-11.441,1.624c-0.209,0.055-0.288,0.227-0.298,0.424
							C120.147,184.624,121.163,188.762,123.048,192.408z"/>
						<g>
							<g>
								<g>
									<g>
										<path style="fill:#92422B;" d="M134.777,178.123c6.715-0.802,13.884-1.014,20.376,1.17
											c1.154,1.489,2.016,3.231,2.454,5.176c1.62,7.196-3.033,14.314-10.393,15.898c-7.36,1.584-14.641-2.965-16.261-10.161
											c-1.008-4.478,0.415-8.923,3.405-12.026C134.497,178.163,134.637,178.14,134.777,178.123z"/>
										<path style="fill:#1A1716;" d="M142.095,177.635c0.138-0.03,0.275-0.044,0.412-0.068c1.362-0.02,2.724,0.011,4.079,0.104
											c3.689,0.845,6.748,3.67,7.617,7.53c1.206,5.359-2.258,10.659-7.739,11.838c-5.481,1.18-10.902-2.208-12.108-7.567
											C133.149,184.115,136.614,178.815,142.095,177.635z"/>
										<path style="fill:#FFFFFF;" d="M145.981,177.633c1.799,0.099,3.588,0.305,5.344,0.653
											c0.425,0.479,0.737,1.066,0.887,1.729c0.478,2.122-0.894,4.221-3.065,4.688c-2.171,0.467-4.317-0.875-4.795-2.997
											C143.991,180.104,144.685,178.516,145.981,177.633z"/>
										<path style="fill:#FFFFFF;" d="M152.665,185.878c0.141,0.627,0.775,1.023,1.416,0.885
											c0.641-0.138,1.046-0.758,0.905-1.384c-0.141-0.627-0.775-1.023-1.416-0.885
											C152.929,184.632,152.524,185.252,152.665,185.878z"/>
									</g>
								</g>
							</g>
						</g>
						<path style="fill:#501C04;" d="M117.948,180.346c1.015-0.417,2.099-0.615,3.129-0.987c1.058-0.382,2.111-0.728,3.193-1.036
							c2.132-0.607,4.262-1.046,6.456-1.356c4.045-0.572,8.194-0.932,12.281-0.869c4.107,0.063,8.274,0.647,12.085,2.24
							c3.831,1.601,7.118,4.204,9.58,7.547c1.202,1.633,2.19,3.46,3.066,5.286c0.849,1.768,1.563,3.707,0.899,5.652
							c-0.11,0.324-0.53,0.03-0.572-0.186c-0.335-1.73-1.249-3.428-2.109-4.949c-0.848-1.5-1.787-2.989-2.798-4.384
							c-2.108-2.907-4.873-5.23-8.179-6.641c-7.121-3.039-14.879-2.188-22.368-1.521c-2.39,0.213-4.772,0.507-7.153,0.804
							c-1.206,0.151-2.406,0.316-3.614,0.44c-1.215,0.125-2.4,0.441-3.618,0.539C117.947,180.947,117.59,180.492,117.948,180.346z"
							/>
					</g>
				</g>
				<path style="fill:#010003;" d="M180.639,99.045c0,0,40.773-11.227,76.819,14.182c0,0,10.637-47.864-31.319-45.501
					S180.639,99.045,180.639,99.045z"/>
				<path style="fill:#27282B;" d="M329.454,62.69c-2.324,1.844-5.425,1.925-8.277,1.648c-2.963-0.288-5.885-1.057-8.721-1.938
					c-3.593-1.116-6.93-2.874-9.957-5.101c-3.063-2.254-5.741-4.988-8.514-7.58c-5.57-5.206-11.407-10.34-18.366-13.613
					c-6.008-2.825-12.713-4.287-19.361-3.983c-5.394,0.247-10.862,1.604-15.472,4.413c-0.131-0.616-0.291-1.23-0.487-1.839
					c-1.666-5.175-4.994-9.667-8.866-13.416c-7.197-6.968-16.783-10.9-26.582-12.442c-11.929-1.878-24.367-1.441-36.235,0.651
					c-11.708,2.064-23.548,5.394-33.722,11.698c-2.174,1.347-4.282,2.802-6.336,4.337c-2.793,1.525-5.52,3.171-8.165,4.939
					c-6.146,4.109-11.898,8.766-17.667,13.38c-5.351,4.28-10.741,8.556-16.437,12.374c-5.171,3.467-11.326,6.96-17.787,6.277
					c-1.597-0.169-3.162-0.648-4.602-1.354c-0.813-0.398-2.358,0.884-1.408,1.479c2.271,1.422,4.309,3.193,6.631,4.534
					c2.472,1.427,5.201,2.198,8.051,2.333c1.126,0.053,2.252,0.018,3.377-0.081c-1.682,1.05-3.277,2.241-4.818,3.487
					c-4.528,3.664-8.677,7.916-11.647,12.96c-3.165,5.375-4.93,11.672-5.977,17.784c-1.092,6.376-1.204,12.884-0.561,19.314
					c0.661,6.608,2.22,13.343,5.976,18.926c0.573,0.851,1.911-0.14,1.989-0.882c0.44-4.158,1.466-8.261,2.927-12.223
					c-0.042,0.194-0.089,0.386-0.13,0.58c-1.553,7.44-2.301,15.49,0.633,22.688c1.385,3.398,3.374,6.501,5.738,9.298
					c2.533,2.996,5.255,5.819,7.742,8.858c4.837,5.913,9.211,12.234,12.88,18.939c2.118,3.87,4.009,7.87,5.583,11.993
					c1.07,2.802,2.03,5.693,2.688,8.641c0.275,1.762,0.551,3.524,0.812,5.289c0.147,0.997,1.98,0.206,1.915-0.622
					c-0.006-0.07-0.015-0.14-0.021-0.21c0.001,0,0.002,0,0.002-0.001c-0.002-0.014-0.004-0.028-0.006-0.042
					c-0.145-1.72-0.408-3.427-0.761-5.119c-1.312-9.103-2.331-18.337-1.807-27.507c0.293-5.125,1.082-10.236,2.007-15.282
					c0.913-4.985,2.126-9.917,3.66-14.748c0.089-0.279,0.183-0.557,0.274-0.836c2.018-0.919,3.977-1.969,5.866-3.03
					c4.369-2.453,8.524-5.266,12.455-8.373c7.332-5.794,14.168-12.431,20.048-19.715c0.604,2.271,1.45,4.483,2.542,6.601
					c2.688,5.214,6.808,9.543,11.837,12.557c5.518,3.307,11.84,4.84,18.161,5.69c3.493,0.47,7.003,0.58,10.505,0.926
					c2.006,0.199,5.148,0.798,6.653-0.999c0.133-0.159,0.28-0.433,0.125-0.632c-1.072-1.378-2.552-2.31-4.005-3.236
					c-1.593-1.015-3.017-2.112-4.279-3.527c-2.581-2.895-4.395-6.417-5.503-10.121c-2.011-6.726-2.04-14.148,0.014-20.866
					c2.06-6.738,6.253-12.428,12.091-16.371c5.714-3.859,12.891-6.478,19.863-5.67c3.725,0.432,7.696,2.135,9.987,5.207
					c2.183,2.928,2.467,6.618,3.094,10.09c-0.116,0.209-0.04,0.42,0.153,0.458c0.098,0.054,0.245,0.006,0.368-0.087
					c1.79-0.773,3.522-1.717,5.468-2.058c1.891-0.331,3.851-0.16,5.657,0.489c4.092,1.469,6.741,5.363,8.407,9.2
					c3.557,8.192,2.752,17.782-0.875,25.806c-1.053,2.329-2.384,4.544-4.026,6.507c-1.663,1.989-3.633,3.681-5.668,5.277
					c-0.452,0.354-0.687,1.21,0.12,1.257c6.491,0.378,12.775-1.798,17.84-5.837c3.434-2.739,6.259-6.15,8.44-9.942
					c1.131,2.663,2.246,5.332,3.195,8.068c1.053,3.035,1.763,6.18,2.483,9.308c0.738,3.207,1.398,6.428,2.056,9.652
					c0.65,3.184,1.342,6.363,1.909,9.564c0.579,3.272,0.931,6.58,1.149,9.895c0.431,6.558,0.391,13.137,0.66,19.702
					c0.107,2.603,0.07,5.186,0.073,7.79c0.002,1.253,0.041,2.507,0.129,3.757c0.069,0.987,0.108,2.074,0.424,3.017
					c0.292,0.869,1.544,0.133,1.609-0.523c0.179-1.814,0.27-3.612,0.606-5.411c0.35-1.875,0.88-3.704,1.393-5.538
					c0.998-3.566,2.033-7.15,3.194-10.667c1.289-3.906,2.78-7.739,4.22-11.591c1.383-3.702,2.586-7.466,4.069-11.13
					c0.721-1.781,1.474-3.549,2.255-5.305c1.412-2.142,2.877-4.247,4.311-6.342c5.939-8.675,11.963-17.939,14.279-28.342
					c0.108-0.484,0.206-0.969,0.297-1.454c0.201,1.761,0.266,3.514,0.129,5.294c-0.186,2.432-0.572,4.848-0.527,7.294
					c0.021,1.142,1.529,0.693,1.922,0.034c5.836-9.784,9.39-20.819,9.394-32.271c0.001-2.829-0.156-5.682-0.799-8.444
					c-0.618-2.652-1.635-5.178-2.79-7.638c-1.167-2.486-2.457-4.875-4.188-7.019c-0.657-0.815-1.365-1.587-2.103-2.329
					c-0.268-0.363-0.544-0.72-0.827-1.074c0.654-0.092,1.304-0.204,1.948-0.339c2.573-0.538,5.06-1.453,7.313-2.813
					c2.076-1.254,3.769-2.951,5.242-4.862c1.554-2.016,3.316-4.688,3.259-7.344C331.256,62.256,330.091,62.185,329.454,62.69z"/>
				<path style="opacity:0.31;fill:#90452C;" d="M148.501,116.842c2.454-4.7,4.963-9.411,6.655-14.453
					c1.528-4.553,2.258-9.285,1.994-14.058c-0.008,0.029-0.015,0.058-0.023,0.086c-1.76,6.031-5.132,11.503-8.988,16.411
					c-4.047,5.151-8.75,9.786-13.787,13.964c-2.38,1.973-4.824,3.858-7.44,5.509c-2.898,1.828-5.921,3.464-9.07,4.816
					c-3.139,1.348-6.396,2.421-9.743,3.115c-1.667,0.346-3.343,0.553-5.03,0.76c-1.66,0.204-3.327,0.243-4.992,0.065
					c-5.699-0.61-10.75-3.59-16.29-4.849c0.694,1.276,1.494,2.493,2.428,3.607c3.76,4.49,9.131,7.042,14.507,9.062
					c0.312,0.117,0.361,0.587,0,0.684c-1.611,0.434-3.281,0.647-4.948,0.678c-5.468,0.101-11.841-1.796-14.788-6.694
					c0.005,1.466,0.093,2.932,0.248,4.39c0.398,3.736,1.22,7.441,2.421,11c1.126,3.338,2.607,6.602,4.678,9.466
					c0.225,0.311-0.198,0.63-0.485,0.485c-3.41-1.724-5.86-4.775-7.527-8.151c-1.574-3.188-2.543-6.649-3.227-10.126
					c-0.331-1.682-0.591-3.378-0.811-5.078c-0.244-1.894-0.479-3.798-0.517-5.709c-0.178-8.851,3.174-17.479,8.392-24.537
					c-0.153,0.031-0.306,0.063-0.457,0.101c-3.927,1.008-7.145,4.113-9.732,7.08c-2.971,3.406-5.467,7.245-7.585,11.232
					c-0.866,1.631-1.701,3.303-2.358,5.032c-0.773,2.035-1.078,4.213-1.086,6.383c0.721,1.655,1.572,3.253,2.589,4.764
					c0.573,0.851,1.911-0.14,1.99-0.882c0.44-4.158,1.466-8.261,2.927-12.223c-0.042,0.194-0.089,0.386-0.13,0.58
					c-1.553,7.44-2.301,15.49,0.633,22.688c1.385,3.398,3.374,6.501,5.738,9.298c2.533,2.996,5.255,5.819,7.742,8.858
					c4.837,5.913,9.211,12.234,12.88,18.939c2.118,3.871,4.009,7.87,5.583,11.993c1.07,2.802,2.03,5.693,2.688,8.641
					c0.275,1.762,0.551,3.524,0.812,5.289c0.147,0.997,1.98,0.206,1.915-0.622c-0.006-0.07-0.015-0.14-0.021-0.21
					c0.001,0,0.002-0.001,0.002-0.001c-0.002-0.014-0.004-0.028-0.006-0.042c-0.145-1.72-0.408-3.427-0.761-5.119
					c-1.312-9.103-2.331-18.337-1.807-27.507c0.293-5.125,1.082-10.236,2.007-15.281c0.913-4.985,2.126-9.917,3.66-14.748
					c0.089-0.279,0.183-0.557,0.274-0.836c2.018-0.919,3.977-1.969,5.866-3.03c4.369-2.453,8.524-5.266,12.455-8.373
					c6.383-5.044,12.388-10.728,17.715-16.92C146.596,120.514,147.544,118.676,148.501,116.842z"/>
				<path style="opacity:0.31;fill:#90452C;" d="M229.26,99.685c0.098,0.054,0.245,0.006,0.368-0.087
					c1.79-0.773,3.522-1.717,5.468-2.058c1.891-0.331,3.851-0.16,5.657,0.489c4.092,1.469,6.741,5.363,8.407,9.2
					c3.558,8.192,2.752,17.782-0.875,25.806c-0.934,2.066-2.088,4.041-3.482,5.832c0.218-0.208,0.436-0.417,0.649-0.632
					c4.505-4.563,7.697-10.371,9.619-16.46c0.91-2.884,1.603-5.903,1.843-8.924c0.186-2.35,0.022-4.732-0.373-7.052
					c-0.813-4.781-2.588-9.893-6.11-13.372c-1.568-1.549-3.533-2.69-5.736-3.001c-2.649-0.374-5.285,0.46-7.598,1.703
					c-0.278,0.149-0.589-0.096-0.521-0.4c0.21-0.937,0.417-1.875,0.619-2.814c1.615-7.478,3.041-15.019,5.398-22.31
					c2.159-6.679,5.111-13.274,9.387-18.881c3.384-4.438,7.642-8.258,12.701-10.683c1.802-0.864,3.68-1.536,5.604-2.017
					c-4.523-1.431-9.288-2.115-14.025-1.899c-5.394,0.247-10.862,1.604-15.472,4.413c-0.131-0.616-0.291-1.23-0.487-1.839
					c-1.666-5.175-4.994-9.667-8.866-13.416c-3.191-3.09-6.853-5.58-10.794-7.532c0.039,0.036,0.08,0.069,0.119,0.106
					c4.857,4.472,8.201,10.305,9.902,16.664c0.942,3.522,1.351,7.12,1.507,10.755c0.164,3.823,0.179,7.661-0.166,11.475
					c-0.66,7.295-2.707,15.256-8.638,20.087c-3.15,2.566-7.03,2.971-10.942,3.203c-4.863,0.289-9.698,1.124-14.321,2.684
					c-7.953,2.683-15.561,7.636-19.925,14.967c-3.924,6.592-4.594,14.421-2.996,21.827c0.886,4.109,2.159,8.102,4.266,11.76
					c2.082,3.614,4.867,6.768,8.126,9.363c1.758,1.399,3.734,2.544,5.775,3.522c-1.395-0.927-2.656-1.938-3.785-3.205
					c-2.581-2.895-4.395-6.417-5.503-10.121c-2.011-6.726-2.04-14.148,0.014-20.866c2.06-6.738,6.253-12.428,12.091-16.372
					c5.714-3.859,12.891-6.478,19.863-5.669c3.725,0.432,7.696,2.135,9.987,5.207c2.183,2.928,2.467,6.618,3.094,10.09
					C228.992,99.436,229.068,99.647,229.26,99.685z"/>
				<path style="opacity:0.31;fill:#90452C;" d="M326.335,66.335c-4.754,2.829-10.268,3.873-15.746,3.278
					c-5.396-0.586-10.547-2.525-15.366-4.979c2.792,3.273,5.599,6.535,8.288,9.894c5.448,6.805,10.587,14.11,13.531,22.385
					c1.433,4.03,2.289,8.275,2.33,12.559c0.044,4.59-0.867,9.132-2.521,13.405c-0.125,0.324-0.568,0.348-0.684,0
					c-0.715-2.14-1.467-4.268-2.298-6.366c-1.378-3.48-2.982-6.877-4.932-10.075c-1.535-2.517-3.283-4.889-5.208-7.114
					c2.366,4.936,3.431,10.418,3.545,15.872c0.123,5.84-0.802,11.706-2.507,17.286c-1.388,4.541-3.34,8.953-5.443,13.207
					c-2.242,4.534-4.779,8.971-7.88,12.977c-2.565,3.313-5.758,6.797-9.874,8.099c-0.192,0.061-0.376-0.072-0.436-0.248
					c-1.356-3.979-2.058-8.12-2.713-12.26c-0.576-3.636-1.149-7.283-2.178-10.824c-0.971-3.343-2.485-6.439-3.978-9.57
					c-2.472-5.181-5.16-10.678-9.337-14.731c0.376,2.669,0.448,5.373,0.162,8.058c-0.329,3.086-1.097,6.045-2.198,8.872
					c1.549-1.78,2.922-3.712,4.1-5.761c1.131,2.663,2.246,5.332,3.195,8.068c1.053,3.035,1.763,6.18,2.483,9.308
					c0.738,3.206,1.398,6.428,2.056,9.652c0.65,3.184,1.342,6.363,1.909,9.564c0.579,3.273,0.931,6.581,1.149,9.896
					c0.431,6.558,0.391,13.137,0.66,19.702c0.107,2.603,0.07,5.186,0.073,7.79c0.002,1.253,0.041,2.507,0.129,3.757
					c0.069,0.987,0.108,2.074,0.424,3.017c0.292,0.869,1.544,0.133,1.609-0.523c0.179-1.814,0.27-3.612,0.606-5.41
					c0.35-1.875,0.88-3.704,1.393-5.538c0.998-3.566,2.033-7.15,3.194-10.667c1.289-3.906,2.78-7.739,4.22-11.591
					c1.383-3.701,2.586-7.466,4.069-11.13c0.721-1.781,1.474-3.549,2.255-5.305c1.411-2.142,2.877-4.248,4.311-6.342
					c5.939-8.675,11.963-17.939,14.279-28.342c0.108-0.484,0.206-0.969,0.297-1.454c0.201,1.761,0.266,3.514,0.129,5.294
					c-0.186,2.432-0.572,4.848-0.527,7.294c0.021,1.142,1.529,0.693,1.922,0.034c5.836-9.785,9.39-20.819,9.394-32.271
					c0.001-2.829-0.156-5.682-0.799-8.443c-0.618-2.652-1.635-5.179-2.79-7.638c-1.167-2.486-2.457-4.874-4.188-7.019
					c-0.657-0.815-1.365-1.587-2.103-2.329c-0.268-0.363-0.544-0.72-0.827-1.074c0.654-0.092,1.304-0.204,1.948-0.339
					c2.573-0.538,5.06-1.453,7.313-2.813c2.076-1.254,3.769-2.951,5.242-4.862c1.554-2.016,3.316-4.688,3.259-7.344
					c-0.005-0.212-0.065-0.38-0.16-0.51C329.647,64.083,328.059,65.31,326.335,66.335z"/>
				<g>
					<path style="opacity:0.65;fill:#92422B;" d="M229.111,261.897c-0.599-0.336-1.666,0.137-2.217,0.36
						c-1.308,0.53-2.567,1.028-3.946,1.426c-0.01,0.003-0.017,0.008-0.026,0.012c-0.13,0.016-0.258,0.036-0.389,0.051
						c-5.769,0.675-11.631,1.003-17.454,1.071c-5.771,0.067-11.545,0.118-17.316,0.079c-2.909-0.02-5.825,0.007-8.731-0.108
						c-2.809-0.111-5.612-0.294-8.415-0.475c-2.685-0.174-5.36-0.415-8.049-0.551c-2-0.101-4.454-0.213-6.032-1.375
						c-0.004,0.003-0.008,0.007-0.012,0.01c-0.521-0.254-1.475,0.31-1.084,0.77c1.21,1.424,3.508,1.687,5.452,1.838
						c2.465,0.192,4.949,0.336,7.418,0.476c6.32,0.358,12.662,0.225,18.992,0.189c6.407-0.036,12.797-0.067,19.199-0.284
						c6.2-0.21,12.513-0.289,18.636-1.186c1.049-0.154,2.138-0.272,3.091-0.694C228.736,263.281,229.95,262.367,229.111,261.897z"/>
					<path style="opacity:0.28;fill:#EB936D;" d="M219.566,262.387c-7.861-0.23-15.342-2.366-23.147-2.954
						c-7.818-0.589-15.487,0.315-23.162,1.488c-2.187,0.334-4.377,0.662-6.557,1.022c-1.863,0.308-3.821,0.877-5.707,0.369
						c-0.051-0.014-0.15,0.061-0.086,0.092c1.302,0.625,2.796,0.52,4.232,0.358c1.817-0.205,3.627-0.493,5.439-0.731
						c3.994-0.523,7.998-1.073,12.019-1.435c7.849-0.706,15.879-0.435,23.661,0.637c4.368,0.602,8.794,1.386,13.244,1.31
						C219.605,262.54,219.709,262.391,219.566,262.387z"/>
					<path style="opacity:0.28;fill:#EB936D;" d="M204.535,275.816c-1.242-0.074-2.516,0.094-3.748,0.226
						c-1.344,0.144-2.682,0.322-4.032,0.431c-2.666,0.215-5.341,0.176-8.013,0.064c-2.568-0.108-5.161-0.275-7.7-0.623
						c-2.427-0.332-4.987-0.748-7.277-1.502c-0.166-0.055-0.441,0.17-0.266,0.283c1.006,0.65,1.966,1.156,3.164,1.548
						c1.136,0.371,2.358,0.598,3.559,0.763c2.567,0.354,5.177,0.541,7.773,0.66c2.737,0.126,5.524,0.139,8.246-0.163
						c1.327-0.147,2.642-0.363,3.956-0.571c1.41-0.223,2.848-0.41,4.237-0.71C204.653,276.175,204.9,275.838,204.535,275.816z"/>
				</g>
				<g>
					<path style="opacity:0.65;fill:#92422B;" d="M189.27,242.73c-0.514-0.158-1.03-0.217-1.562-0.324
						c-0.646-0.13-1.257-0.328-1.882-0.503c-1.298-0.364-2.611-0.676-3.881-1.101c-2.507-0.839-5.152-1.896-6.932-3.53
						c-0.853-0.782-1.382-1.681-1.784-2.636c-0.486-1.153-0.142-2.314,0.385-3.421c0.618-1.299,1.406-2.545,2.063-3.832
						c0.51-1,0.934-2.031,1.342-3.063c-1.787,3.041-3.572,6.081-5.626,8.998c-0.156,0.495-0.258,1-0.266,1.517
						c-0.016,1.053,0.489,2.062,1.267,2.937c1.666,1.874,4.344,3.228,7.07,4.059c1.594,0.486,3.24,0.855,4.918,1.118
						c0.777,0.121,1.576,0.165,2.366,0.212c0.755,0.046,1.478,0.131,2.231,0.063C189.23,243.199,189.685,242.857,189.27,242.73z"/>
					<path style="opacity:0.65;fill:#92422B;" d="M192.04,242.73c0.514-0.158,1.031-0.217,1.562-0.324
						c0.646-0.13,1.257-0.328,1.882-0.503c1.298-0.364,2.611-0.676,3.881-1.101c2.507-0.839,5.151-1.896,6.932-3.53
						c0.853-0.782,1.382-1.681,1.784-2.636c0.486-1.153,0.142-2.314-0.385-3.421c-0.618-1.299-1.406-2.545-2.063-3.832
						c-0.51-1-0.934-2.031-1.342-3.063c1.787,3.041,3.572,6.081,5.626,8.998c0.156,0.495,0.258,1,0.266,1.517
						c0.015,1.053-0.489,2.062-1.267,2.937c-1.666,1.874-4.344,3.228-7.07,4.059c-1.594,0.486-3.24,0.855-4.918,1.118
						c-0.777,0.121-1.577,0.165-2.366,0.212c-0.755,0.046-1.478,0.131-2.231,0.063C192.079,243.199,191.624,242.857,192.04,242.73z"
						/>
				</g>
			</g>
			<g style="opacity:0.26;">
				<path style="fill:#E14A31;" d="M229.081,209.478c-0.021-0.064-0.061-0.114-0.12-0.151c-0.058-0.041-0.122-0.063-0.192-0.066
					c-0.074-0.017-0.149-0.015-0.224,0.005c-0.053,0.017-0.105,0.034-0.158,0.051c-0.11,0.049-0.206,0.116-0.289,0.203
					c-0.034,0.044-0.068,0.087-0.102,0.131c-0.055,0.085-0.086,0.178-0.096,0.279v0.184c-0.009,0.07,0.004,0.134,0.039,0.192
					c0.021,0.064,0.061,0.114,0.12,0.151c0.058,0.041,0.122,0.063,0.192,0.066c0.074,0.017,0.149,0.015,0.224-0.005
					c0.053-0.017,0.105-0.034,0.158-0.051c0.11-0.049,0.206-0.116,0.289-0.203c0.034-0.044,0.068-0.087,0.102-0.131
					c0.055-0.085,0.087-0.178,0.096-0.279v-0.184C229.128,209.601,229.115,209.536,229.081,209.478z"/>
				<path style="fill:#E14A31;" d="M235.139,207.987c-0.588,0-1.138,1.045-0.358,1.045
					C235.369,209.032,235.919,207.987,235.139,207.987z"/>
				<path style="fill:#E14A31;" d="M242.205,207.554c-0.01-0.087-0.027-0.17-0.052-0.254c-0.01-0.031-0.025-0.061-0.04-0.09
					c-0.014-0.087-0.045-0.17-0.124-0.219c-0.114-0.07-0.232-0.069-0.362-0.054c-0.146-0.008-0.295,0.006-0.418,0.073
					c-0.061,0.033-0.115,0.068-0.171,0.102c-0.242,0.112-0.465,0.265-0.642,0.457c-0.326,0.355-0.51,0.808-0.546,1.287
					c-0.009,0.123,0.036,0.239,0.123,0.324c0.095,0.094,0.203,0.122,0.337,0.133c0.192,0.017,0.383,0.007,0.574-0.022
					c0.237-0.036,0.45-0.135,0.654-0.257c0.099-0.059,0.189-0.14,0.271-0.219c0.081-0.078,0.153-0.171,0.211-0.267
					c0.116-0.19,0.184-0.401,0.204-0.622C242.234,207.804,242.219,207.676,242.205,207.554z"/>
				<path style="fill:#E14A31;" d="M252.026,210.062c-0.016-0.076-0.053-0.137-0.112-0.182c-0.048-0.058-0.11-0.096-0.186-0.113
					c-0.019-0.008-0.038-0.015-0.058-0.023c-0.044-0.006-0.088-0.013-0.132-0.019c-0.075-0.003-0.148,0.01-0.216,0.038
					c-0.053,0.012-0.101,0.033-0.146,0.064c-0.075,0.036-0.141,0.086-0.198,0.148l-0.072,0.066
					c-0.038,0.048-0.075,0.097-0.113,0.145c-0.049,0.071-0.079,0.148-0.09,0.231c-0.018,0.049-0.021,0.1-0.01,0.151
					c-0.004,0.051,0.008,0.097,0.036,0.139c0.023,0.071,0.067,0.127,0.133,0.167l0.134,0.062l0.156,0.023
					c0.09,0.003,0.175-0.012,0.257-0.045c0.063-0.014,0.121-0.039,0.173-0.077c0.061-0.027,0.114-0.064,0.16-0.112
					c0.076-0.057,0.139-0.126,0.188-0.209c0.025-0.051,0.049-0.103,0.074-0.154c0.011-0.052,0.021-0.103,0.032-0.155
					C252.035,210.16,252.03,210.111,252.026,210.062z"/>
				<path style="fill:#E14A31;" d="M255.083,213.587c-0.715,0-1.385,1.271-0.436,1.271
					C255.363,214.859,256.032,213.587,255.083,213.587z"/>
				<path style="fill:#E14A31;" d="M243.124,216.768c-0.01-0.087-0.03-0.174-0.061-0.256c-0.096-0.252-0.237-0.477-0.472-0.623
					c-0.286-0.178-0.622-0.23-0.951-0.172c-0.094,0.017-0.189,0.048-0.281,0.086c-0.31,0.091-0.569,0.296-0.766,0.564
					c-0.192,0.262-0.297,0.589-0.338,0.909c-0.04,0.319,0.022,0.635,0.184,0.913c0.19,0.324,0.533,0.475,0.891,0.515
					c0.191,0.021,0.396-0.004,0.58-0.056c0.401-0.114,0.724-0.35,0.96-0.694c0.154-0.225,0.239-0.505,0.268-0.774
					C243.153,217.042,243.139,216.904,243.124,216.768z"/>
				<path style="fill:#E14A31;" d="M209.437,208.122c-0.002-0.006-0.007-0.01-0.01-0.017c-0.039-0.098-0.052-0.204-0.075-0.306
					c0.036-0.09,0.05-0.187,0.024-0.285c-0.034-0.129-0.123-0.202-0.232-0.242c-0.009-0.022-0.018-0.044-0.027-0.065
					c-0.046-0.11-0.095-0.219-0.145-0.328c-0.055-0.075-0.127-0.125-0.217-0.15c-0.099-0.026-0.198-0.028-0.298-0.005
					c-0.223,0.046-0.437,0.194-0.555,0.389c-0.167,0.276-0.319,0.558-0.436,0.86c-0.067,0.174-0.027,0.392,0.135,0.5
					c0.046,0.031,0.092,0.058,0.142,0.082c0.073,0.035,0.146,0.075,0.226,0.092c0.189,0.04,0.368,0.017,0.547-0.048
					c0.001,0.001,0.002,0.003,0.003,0.004c0.08,0.084,0.131,0.132,0.253,0.15c0.233,0.034,0.481-0.106,0.603-0.304
					C209.427,208.361,209.474,208.226,209.437,208.122z"/>
				<path style="fill:#E14A31;" d="M210.835,202.019c-0.667,0-1.29,1.185-0.406,1.185
					C211.096,203.204,211.72,202.019,210.835,202.019z"/>
				<path style="fill:#E14A31;" d="M216.306,216.497c-0.008-0.058-0.016-0.116-0.023-0.174c-0.016-0.077-0.054-0.139-0.114-0.186
					c-0.048-0.059-0.111-0.098-0.189-0.115c-0.053-0.008-0.106-0.015-0.159-0.023c-0.091-0.003-0.179,0.012-0.262,0.046
					c-0.064,0.014-0.123,0.04-0.176,0.078c-0.091,0.044-0.17,0.104-0.239,0.179c-0.038,0.049-0.077,0.098-0.115,0.148
					c-0.062,0.096-0.097,0.201-0.108,0.314l-0.024,0.189c-0.008,0.107,0.017,0.205,0.077,0.294c0.036,0.036,0.072,0.071,0.109,0.107
					c0.093,0.06,0.195,0.089,0.306,0.09c0.094,0.003,0.185-0.012,0.271-0.048c0.099-0.025,0.19-0.069,0.272-0.132
					c0.087-0.056,0.159-0.127,0.217-0.211c0.063-0.069,0.108-0.149,0.137-0.239C216.324,216.711,216.33,216.605,216.306,216.497z"/>
				<path style="fill:#E14A31;" d="M261.194,211.842c0-0.011-0.01-0.133-0.012-0.145c0-0.001-0.001-0.003-0.001-0.005
					s-0.001-0.003-0.001-0.004c0-0.001-0.001-0.002-0.001-0.003c-0.001-0.002-0.056-0.122-0.056-0.124c0,0-0.001-0.001-0.001-0.001
					c-0.002-0.004-0.005-0.008-0.008-0.011c-0.031-0.037-0.067-0.07-0.103-0.102c-0.056-0.039-0.117-0.061-0.184-0.064
					c-0.027-0.006-0.055,0.003-0.082,0.002c-0.01-0.001-0.019-0.003-0.029-0.004c-0.021,0.002-0.041,0.004-0.062,0.006
					c-0.014,0.003-0.028-0.003-0.042,0.001c-0.005,0.001-0.009,0.003-0.014,0.005c-0.018,0.002-0.036,0.004-0.054,0.005
					c-0.007,0.002-0.013,0.004-0.02,0.007c-0.012,0.003-0.024,0.006-0.036,0.007c0.007-0.001,0.013-0.001,0.02-0.002
					c-0.007,0.002-0.014,0.005-0.021,0.007c-0.047,0.007-0.095,0.006-0.14,0.024c-0.095,0.024-0.182,0.066-0.261,0.126
					c-0.05,0.043-0.1,0.086-0.15,0.129c-0.067,0.064-0.117,0.139-0.151,0.224c-0.03,0.048-0.048,0.1-0.053,0.156
					c-0.023,0.074-0.024,0.15-0.003,0.227c0.02,0.044,0.041,0.089,0.061,0.133c0.061,0.083,0.141,0.138,0.24,0.165
					c0.057,0.009,0.114,0.018,0.171,0.025c0.006,0.001,0.011,0.001,0.017,0.002c0.01,0.001,0.019,0.001,0.029,0.001
					c0.004,0,0.009-0.001,0.013-0.001c0.058-0.005,0.119-0.01,0.177-0.018c0.002,0,0.005-0.001,0.007-0.001
					c0.004-0.001,0.008-0.001,0.012-0.002c0.002-0.001,0.004-0.001,0.005-0.001c0.001,0,0.002-0.001,0.003-0.001
					c0.03-0.01,0.061-0.019,0.091-0.029c0.03-0.009,0.06-0.019,0.09-0.029c0.003-0.001,0.172-0.097,0.175-0.099
					c0.001-0.001,0.151-0.13,0.152-0.131c0.001-0.001,0.114-0.146,0.115-0.148c0.001-0.002,0.075-0.155,0.075-0.157
					c0.001-0.002,0.001-0.003,0.002-0.005c0-0.001,0.001-0.002,0.001-0.003c0.002-0.007,0.031-0.148,0.032-0.155
					c0-0.002,0-0.003,0-0.005C261.194,211.844,261.194,211.843,261.194,211.842z"/>
				<g>
					<path style="fill:#E14A31;" d="M265.641,202.885c-0.025-0.094-0.078-0.169-0.158-0.225c-0.055-0.051-0.108-0.105-0.166-0.153
						c-0.013-0.011-0.026-0.021-0.04-0.03c-0.005-0.003-0.011-0.007-0.016-0.01c-0.032-0.018-0.14-0.059-0.16-0.069
						c-0.095-0.026-0.135-0.02-0.229-0.011c-0.133,0.013-0.096,0.004-0.267,0.067c-0.002,0.001-0.004,0.001-0.006,0.002
						c-0.124,0.056-0.237,0.132-0.331,0.231c-0.043,0.045-0.082,0.094-0.115,0.147c-0.051,0.083-0.106,0.21-0.106,0.311
						c0,0.002,0.012,0.146,0.013,0.148c0.01,0.047,0.033,0.093,0.06,0.132c0.001,0.002,0.003,0.003,0.004,0.004
						c0,0.001,0.001,0.001,0.001,0.002l-0.001-0.001c0.003,0.004,0.007,0.006,0.009,0.009c0.025,0.039,0.056,0.075,0.099,0.102
						c0.045,0.025,0.091,0.046,0.138,0.064c0.004,0.001,0.007,0.002,0.011,0.003c0.009,0.003,0.018,0.006,0.027,0.009
						c0.001,0.001,0.002,0.001,0.003,0.001c0.025,0.013,0.05,0.025,0.076,0.038c0.01,0.005,0.021,0.01,0.031,0.016
						c0.062,0.044,0.13,0.068,0.205,0.071c0.079,0.018,0.159,0.016,0.24-0.005c0.091-0.017,0.175-0.051,0.251-0.101
						c0.086-0.042,0.161-0.098,0.227-0.17c0.036-0.047,0.073-0.093,0.109-0.14c0.058-0.091,0.092-0.19,0.102-0.298
						C265.649,202.979,265.645,202.932,265.641,202.885z"/>
					<path style="fill:#E14A31;" d="M265.102,202.397c0.008,0.002,0.011,0.001,0.02,0.004
						C265.098,202.394,265.095,202.394,265.102,202.397z"/>
				</g>
				<path style="fill:#E14A31;" d="M258.772,202.144c-0.061-0.077-0.164-0.135-0.265-0.126c-0.07,0.007-0.14,0.014-0.21,0.021
					c-0.039,0.004-0.079,0.007-0.119,0.01c-0.013-0.095-0.051-0.192-0.133-0.242c-0.113-0.069-0.254-0.088-0.383-0.057
					c-0.152,0.037-0.309,0.114-0.412,0.234c-0.096,0.112-0.178,0.22-0.228,0.36c-0.015,0.042-0.025,0.099-0.028,0.144
					c-0.001,0.019,0.003,0.095,0.013,0.136c0.005,0.018,0.03,0.067,0.026,0.059c-0.01-0.021,0.017,0.044,0.027,0.058
					c0.024,0.034,0.069,0.076,0.091,0.092c0.005,0.004,0.01,0.007,0.015,0.01c0.025,0.016,0.081,0.04,0.109,0.051
					c0.004,0.001,0.007,0.003,0.01,0.004c0.052,0.015,0.108,0.022,0.162,0.024c0.05,0.003,0.1-0.008,0.15-0.015
					c0.248,0.002,0.498-0.046,0.743-0.082c0.064-0.012,0.122-0.035,0.175-0.07c0.06-0.029,0.113-0.069,0.158-0.118
					c0.066-0.074,0.116-0.155,0.136-0.253C258.827,202.305,258.825,202.21,258.772,202.144z"/>
				<path style="fill:#E14A31;" d="M255.793,222.883c-0.624,0-1.208,1.11-0.38,1.11
					C256.037,223.993,256.621,222.883,255.793,222.883z"/>
				<path style="fill:#E14A31;" d="M248.406,225.507c-0.576,0-1.114,1.023-0.351,1.023
					C248.631,226.53,249.169,225.507,248.406,225.507z"/>
				<path style="fill:#E14A31;" d="M235.696,222.352c-0.6,0-1.161,1.067-0.365,1.067
					C235.93,223.419,236.492,222.352,235.696,222.352z"/>
				<path style="fill:#E14A31;" d="M239.58,216.776c-0.032-0.032-0.064-0.064-0.097-0.095c-0.083-0.053-0.174-0.08-0.273-0.08
					c-0.053,0.005-0.106,0.01-0.16,0.016c-0.118,0.026-0.226,0.074-0.325,0.144c-0.072,0.061-0.156,0.122-0.217,0.199
					c-0.04,0.05-0.081,0.1-0.117,0.152c-0.005,0.008-0.011,0.016-0.016,0.024c-0.036,0.059-0.063,0.123-0.091,0.185
					c-0.033,0.072-0.045,0.161-0.059,0.236c-0.007,0.038-0.008,0.077-0.006,0.115c-0.009,0.07,0.004,0.134,0.039,0.193
					c0.021,0.064,0.061,0.114,0.12,0.151c0.058,0.041,0.122,0.063,0.192,0.066c0.074,0.017,0.149,0.015,0.224-0.005
					c0.053-0.017,0.105-0.034,0.158-0.051c0.11-0.049,0.206-0.116,0.289-0.203c0.034-0.044,0.068-0.087,0.102-0.131
					c0.045-0.071,0.071-0.148,0.085-0.23c0.021-0.023,0.049-0.039,0.066-0.065c0.056-0.062,0.096-0.132,0.122-0.212
					c0.029-0.07,0.037-0.142,0.024-0.214C239.644,216.898,239.624,216.834,239.58,216.776z"/>
				<path style="fill:#E14A31;" d="M226.694,218.208c-0.023-0.086-0.07-0.154-0.143-0.204c-0.039-0.018-0.078-0.036-0.117-0.055
					c-0.043-0.011-0.086-0.016-0.129-0.018c-0.001-0.048-0.003-0.095-0.028-0.137c-0.019-0.06-0.057-0.106-0.112-0.141
					c-0.038-0.017-0.075-0.035-0.113-0.052c-0.067-0.021-0.135-0.025-0.203-0.012c-0.051,0-0.099,0.01-0.145,0.031
					c-0.079,0.02-0.151,0.055-0.217,0.105l-0.125,0.108c-0.07,0.073-0.123,0.156-0.157,0.251c-0.021,0.096-0.048,0.198-0.048,0.298
					c0,0.065,0.006,0.13,0.016,0.194c0.003,0.02,0.008,0.04,0.016,0.059c0.019,0.046,0.039,0.093,0.063,0.137
					c0.004,0.008,0.009,0.016,0.015,0.024c0.023,0.03,0.086,0.095,0.134,0.122c0.004,0.002,0.007,0.004,0.011,0.006
					c0.042,0.02,0.085,0.042,0.128,0.059c0.009,0.004,0.018,0.007,0.028,0.009c0.031,0.008,0.066,0.011,0.096,0.016
					c0.032,0.005,0.066,0.012,0.1,0.013c0.012,0.001,0.025,0,0.037,0c0.062-0.004,0.125-0.01,0.187-0.019
					c0.031-0.004,0.062-0.012,0.092-0.02c0.083-0.016,0.159-0.046,0.228-0.092c0.078-0.038,0.147-0.089,0.206-0.154
					c0.058-0.056,0.102-0.121,0.131-0.195c0.036-0.062,0.057-0.13,0.06-0.203C226.702,218.294,226.698,218.251,226.694,218.208z"/>
				<path style="fill:#E14A31;" d="M222.361,220.092c-0.023-0.113-0.047-0.225-0.07-0.338c-0.01-0.048-0.033-0.086-0.07-0.115
					c-0.03-0.037-0.069-0.06-0.117-0.071c-0.033-0.005-0.066-0.009-0.098-0.014c-0.056-0.002-0.11,0.007-0.162,0.028
					c-0.039,0.009-0.076,0.025-0.109,0.048c-0.056,0.027-0.105,0.064-0.148,0.111c-0.024,0.03-0.047,0.061-0.071,0.091
					c-0.038,0.059-0.06,0.124-0.067,0.194c-0.024,0.128-0.048,0.256-0.072,0.384c-0.006,0.074,0.012,0.143,0.054,0.205
					c0.025,0.025,0.051,0.05,0.076,0.075c0.065,0.042,0.136,0.062,0.213,0.062c0.066,0.002,0.129-0.009,0.189-0.033
					c0.069-0.018,0.132-0.048,0.19-0.092c0.061-0.039,0.111-0.088,0.151-0.147c0.044-0.048,0.076-0.104,0.096-0.166
					C222.374,220.241,222.378,220.167,222.361,220.092z"/>
				<path style="fill:#E14A31;" d="M218.86,217.143c-0.012-0.056-0.039-0.1-0.082-0.134c-0.035-0.043-0.08-0.071-0.136-0.083
					l-0.159-0.042c-0.087-0.023-0.175-0.025-0.263-0.005c-0.101,0.022-0.194,0.064-0.279,0.123c-0.04,0.034-0.08,0.069-0.12,0.103
					c-0.067,0.07-0.118,0.15-0.15,0.241c-0.025,0.06-0.032,0.122-0.021,0.184c-0.001,0.06,0.016,0.115,0.054,0.165
					c0.1,0.143,0.295,0.172,0.454,0.137l0.187-0.042c0.043-0.014,0.086-0.028,0.128-0.042c0.068-0.028,0.128-0.067,0.18-0.118
					c0.039-0.027,0.071-0.06,0.096-0.1c0.044-0.048,0.076-0.104,0.096-0.166c0.008-0.038,0.016-0.076,0.023-0.114
					C218.866,217.215,218.863,217.179,218.86,217.143z"/>
				<path style="fill:#E14A31;" d="M250.235,228.495c-0.051-0.077-0.118-0.13-0.202-0.158c-0.081-0.047-0.17-0.068-0.266-0.064
					c-0.143,0-0.28,0.029-0.41,0.087c-0.136,0.06-0.269,0.149-0.374,0.258c-0.012,0.008-0.027,0.01-0.039,0.019
					c-0.051,0.044-0.102,0.088-0.153,0.132c-0.039,0.05-0.077,0.1-0.116,0.149c-0.05,0.073-0.081,0.152-0.092,0.238
					c-0.023,0.076-0.025,0.153-0.003,0.231c0.011,0.04,0.019,0.081,0.025,0.122c0.003,0.024,0.005,0.048,0.009,0.071
					c0.001,0.008,0.003,0.015,0.005,0.023c0.001,0.002,0.002,0.004,0.002,0.006c0.011,0.029,0.05,0.116,0.065,0.143
					c0.002,0.003,0.004,0.007,0.006,0.01c0.002,0.003,0.005,0.006,0.007,0.009c0.002,0.002,0.003,0.004,0.005,0.005
					c0.032,0.035,0.079,0.08,0.114,0.112c0.009,0.008,0.018,0.015,0.027,0.022c0.038,0.029,0.078,0.055,0.118,0.081
					c0.205,0.137,0.477,0.106,0.692,0.013c0.132-0.059,0.249-0.14,0.349-0.245c0.091-0.094,0.159-0.203,0.203-0.326
					c0.016-0.049,0.03-0.099,0.047-0.148c0.03-0.083,0.045-0.173,0.06-0.259c0.011-0.065,0.007-0.133,0.009-0.199
					C250.331,228.706,250.302,228.596,250.235,228.495z"/>
				<path style="fill:#E14A31;" d="M265.953,209.213c-0.023-0.057-0.049-0.118-0.079-0.173c-0.005-0.008-0.009-0.016-0.016-0.023
					c-0.04-0.049-0.09-0.093-0.137-0.136c-0.007-0.007-0.014-0.013-0.021-0.019c-0.016-0.012-0.033-0.022-0.051-0.031
					c-0.067-0.034-0.139-0.074-0.214-0.093c-0.08-0.02-0.164-0.031-0.246-0.036c-0.027-0.002-0.055-0.001-0.082,0.001
					c-0.094,0.008-0.192,0.013-0.285,0.034c-0.016,0.004-0.031,0.008-0.047,0.012c-0.008,0.002-0.016,0.005-0.024,0.008
					c-0.048,0.015-0.163,0.048-0.21,0.068c-0.003,0.001-0.005,0.002-0.008,0.004c-0.067,0.038-0.134,0.076-0.201,0.114
					c-0.016,0.011-0.031,0.023-0.046,0.035c-0.007,0.006-0.015,0.012-0.022,0.018c-0.008,0.007-0.025,0.021-0.038,0.032
					c-0.015,0.009-0.032,0.016-0.047,0.025c-0.112,0.07-0.204,0.186-0.279,0.292c-0.044,0.063-0.078,0.136-0.102,0.209
					c-0.018,0.055-0.028,0.115-0.037,0.172c-0.003,0.016-0.004,0.033-0.004,0.049c0.001,0.169,0.039,0.296,0.125,0.442
					c0.024,0.04,0.052,0.077,0.084,0.112c0.059,0.066,0.122,0.131,0.192,0.186c0.082,0.064,0.184,0.11,0.28,0.146
					c0.021,0.008,0.043,0.013,0.065,0.017c0.071,0.013,0.149,0.03,0.223,0.028c0.068-0.002,0.139-0.01,0.206-0.02
					c0.01-0.001,0.02-0.003,0.029-0.005c0.07-0.017,0.141-0.042,0.208-0.067c0.01-0.004,0.02-0.007,0.029-0.011
					c0.008-0.004,0.016-0.008,0.023-0.012c0.069-0.037,0.141-0.073,0.206-0.117c0.008-0.005,0.015-0.011,0.023-0.017
					c0.062-0.049,0.124-0.101,0.181-0.156c0.061-0.059,0.111-0.133,0.16-0.2c0.011-0.016,0.022-0.031,0.031-0.048
					c0.039-0.071,0.076-0.146,0.106-0.222c0.007-0.019,0.013-0.038,0.018-0.057c0.022-0.089,0.05-0.19,0.046-0.285
					C265.988,209.4,265.988,209.298,265.953,209.213z"/>
				<path style="fill:#E14A31;" d="M248.103,204.399l-0.104-0.102c-0.089-0.057-0.186-0.085-0.292-0.086
					c-0.09-0.003-0.176,0.012-0.259,0.045c-0.094,0.024-0.181,0.066-0.26,0.126c-0.083,0.054-0.152,0.121-0.207,0.202
					c-0.06,0.066-0.103,0.142-0.131,0.228c-0.011,0.052-0.021,0.104-0.032,0.156c-0.008,0.102,0.016,0.196,0.073,0.281l0.104,0.102
					c0.089,0.057,0.186,0.085,0.292,0.085c0.09,0.003,0.176-0.012,0.259-0.046c0.094-0.024,0.181-0.066,0.26-0.126
					c0.083-0.054,0.152-0.121,0.207-0.202c0.06-0.066,0.103-0.142,0.131-0.228c0.011-0.052,0.021-0.104,0.032-0.156
					C248.185,204.577,248.16,204.484,248.103,204.399z"/>
				<path style="fill:#E14A31;" d="M218.936,208.481c-0.003-0.023-0.007-0.046-0.014-0.069c-0.02-0.068-0.054-0.135-0.085-0.197
					c-0.01-0.019-0.02-0.037-0.034-0.054c-0.044-0.055-0.097-0.106-0.151-0.15c-0.056-0.045-0.131-0.071-0.195-0.099
					c-0.022-0.009-0.043-0.017-0.066-0.022c-0.078-0.017-0.161-0.031-0.242-0.032c-0.09-0.001-0.181,0.011-0.269,0.025
					c-0.116,0.018-0.222,0.068-0.323,0.125c-0.045,0.025-0.091,0.049-0.135,0.078c-0.034,0.022-0.065,0.046-0.096,0.072
					c-0.05,0.043-0.1,0.086-0.151,0.129c-0.067,0.065-0.117,0.139-0.151,0.224c-0.037,0.077-0.067,0.169-0.07,0.26
					c-0.035,0.06-0.068,0.12-0.096,0.187c-0.031,0.075-0.045,0.158-0.058,0.237c-0.013,0.077-0.002,0.159,0.009,0.235
					c0.006,0.038,0.016,0.074,0.032,0.109c0.032,0.074,0.063,0.152,0.115,0.216c0.069,0.084,0.157,0.174,0.256,0.226
					c0.138,0.071,0.247,0.109,0.405,0.115c0.075,0.003,0.152-0.007,0.226-0.021c0.078-0.014,0.156-0.043,0.229-0.072
					c0.079-0.031,0.154-0.079,0.225-0.124c0.073-0.046,0.137-0.109,0.201-0.166c0.083-0.073,0.149-0.164,0.211-0.255
					c0.061-0.09,0.106-0.193,0.148-0.292c0.021-0.05,0.036-0.101,0.048-0.154c0.022-0.1,0.049-0.205,0.049-0.309
					C218.953,208.63,218.945,208.555,218.936,208.481z"/>
				<path style="fill:#E14A31;" d="M207.782,197.81c-0.012-0.042-0.033-0.08-0.053-0.119c0,0,0-0.001,0-0.001
					c0.009,0.019,0.018,0.039,0.027,0.058c-0.014-0.031-0.019-0.064-0.026-0.096c0.001-0.01-0.001-0.021,0.001-0.031
					c0.008-0.058-0.003-0.112-0.032-0.16c-0.017-0.053-0.051-0.095-0.1-0.126c-0.034-0.016-0.067-0.031-0.101-0.047
					c-0.06-0.019-0.121-0.022-0.182-0.011c-0.045,0-0.088,0.009-0.13,0.028c-0.071,0.018-0.135,0.049-0.195,0.094
					c-0.037,0.032-0.075,0.064-0.112,0.096c-0.063,0.065-0.11,0.14-0.141,0.225c-0.013,0.054-0.025,0.108-0.033,0.163
					c-0.003,0.018-0.005,0.036-0.005,0.055c-0.001,0.017,0,0.034,0.001,0.051c0.004,0.053,0.006,0.107,0.016,0.16
					c0.003,0.016,0.007,0.033,0.012,0.048c0.003,0.008,0.005,0.017,0.008,0.025c0.001,0.004,0.003,0.007,0.004,0.011
					c0.001,0.002,0.001,0.004,0.002,0.005c0.016,0.034,0.031,0.068,0.047,0.103c0.005,0.007,0.011,0.014,0.017,0.02
					c0.031,0.031,0.062,0.063,0.094,0.092c0.013,0.012,0.028,0.023,0.042,0.034c0.033,0.015,0.066,0.031,0.1,0.046
					c0.059,0.018,0.119,0.022,0.179,0.011c0.045,0,0.087-0.009,0.128-0.027c0.07-0.018,0.134-0.049,0.192-0.093l0.111-0.095
					l0.084-0.108c0.037-0.052,0.059-0.11,0.067-0.172c0.017-0.055,0.018-0.11,0.002-0.167
					C207.797,197.858,207.789,197.834,207.782,197.81z"/>
			</g>
			<g style="opacity:0.26;">
				<path style="fill:#E14A31;" d="M150.728,209.478c0.021-0.064,0.061-0.114,0.12-0.151c0.058-0.041,0.122-0.063,0.192-0.066
					c0.074-0.017,0.149-0.015,0.224,0.005c0.053,0.017,0.105,0.034,0.158,0.051c0.11,0.049,0.206,0.116,0.289,0.203
					c0.034,0.044,0.068,0.087,0.102,0.131c0.055,0.085,0.086,0.178,0.096,0.279v0.184c0.009,0.07-0.004,0.134-0.039,0.192
					c-0.021,0.064-0.061,0.114-0.12,0.151c-0.058,0.041-0.122,0.063-0.192,0.066c-0.074,0.017-0.149,0.015-0.224-0.005
					c-0.053-0.017-0.105-0.034-0.158-0.051c-0.11-0.049-0.206-0.116-0.289-0.203c-0.034-0.044-0.068-0.087-0.102-0.131
					c-0.055-0.085-0.086-0.178-0.096-0.279v-0.184C150.68,209.601,150.693,209.536,150.728,209.478z"/>
				<path style="fill:#E14A31;" d="M144.669,207.987c0.588,0,1.138,1.045,0.358,1.045
					C144.439,209.032,143.889,207.987,144.669,207.987z"/>
				<path style="fill:#E14A31;" d="M137.603,207.554c0.009-0.087,0.027-0.17,0.052-0.254c0.01-0.031,0.025-0.061,0.04-0.09
					c0.014-0.087,0.045-0.17,0.124-0.219c0.114-0.07,0.232-0.069,0.362-0.054c0.146-0.008,0.295,0.006,0.418,0.073
					c0.061,0.033,0.115,0.068,0.171,0.102c0.242,0.112,0.465,0.265,0.642,0.457c0.326,0.355,0.51,0.808,0.546,1.287
					c0.009,0.123-0.035,0.239-0.122,0.324c-0.095,0.094-0.203,0.122-0.337,0.133c-0.192,0.017-0.383,0.007-0.574-0.022
					c-0.237-0.036-0.45-0.135-0.654-0.257c-0.099-0.059-0.189-0.14-0.271-0.219c-0.081-0.078-0.153-0.171-0.211-0.267
					c-0.116-0.19-0.184-0.401-0.204-0.622C137.574,207.804,137.59,207.676,137.603,207.554z"/>
				<path style="fill:#E14A31;" d="M127.783,210.062c0.016-0.076,0.053-0.137,0.112-0.182c0.048-0.058,0.11-0.096,0.186-0.113
					c0.019-0.008,0.039-0.015,0.058-0.023c0.044-0.006,0.088-0.013,0.132-0.019c0.075-0.003,0.148,0.01,0.217,0.038
					c0.053,0.012,0.101,0.033,0.145,0.064c0.075,0.036,0.141,0.086,0.197,0.148l0.072,0.066c0.038,0.048,0.075,0.097,0.113,0.145
					c0.049,0.071,0.079,0.148,0.09,0.231c0.018,0.049,0.021,0.1,0.01,0.151c0.004,0.051-0.008,0.097-0.036,0.139
					c-0.023,0.071-0.067,0.127-0.133,0.167l-0.134,0.062l-0.156,0.023c-0.09,0.003-0.175-0.012-0.257-0.045
					c-0.063-0.014-0.12-0.039-0.173-0.077c-0.061-0.027-0.114-0.064-0.16-0.112c-0.076-0.057-0.139-0.126-0.187-0.209
					c-0.025-0.051-0.049-0.103-0.074-0.154c-0.011-0.052-0.021-0.103-0.032-0.155C127.774,210.16,127.778,210.111,127.783,210.062z"
					/>
				<path style="fill:#E14A31;" d="M124.725,213.587c0.715,0,1.384,1.271,0.436,1.271
					C124.446,214.859,123.777,213.587,124.725,213.587z"/>
				<path style="fill:#E14A31;" d="M136.685,216.768c0.01-0.087,0.03-0.174,0.061-0.256c0.096-0.252,0.237-0.477,0.473-0.623
					c0.285-0.178,0.621-0.23,0.951-0.172c0.094,0.017,0.189,0.048,0.281,0.086c0.31,0.091,0.569,0.296,0.766,0.564
					c0.192,0.262,0.297,0.589,0.338,0.909c0.04,0.319-0.022,0.635-0.184,0.913c-0.19,0.324-0.533,0.475-0.891,0.515
					c-0.191,0.021-0.396-0.004-0.58-0.056c-0.401-0.114-0.724-0.35-0.96-0.694c-0.154-0.225-0.239-0.505-0.268-0.774
					C136.655,217.042,136.669,216.904,136.685,216.768z"/>
				<path style="fill:#E14A31;" d="M170.372,208.122c0.002-0.006,0.007-0.01,0.01-0.017c0.039-0.098,0.052-0.204,0.075-0.306
					c-0.036-0.09-0.05-0.187-0.024-0.285c0.034-0.129,0.123-0.202,0.232-0.242c0.009-0.022,0.018-0.044,0.027-0.065
					c0.046-0.11,0.095-0.219,0.145-0.328c0.055-0.075,0.127-0.125,0.217-0.15c0.099-0.026,0.198-0.028,0.298-0.005
					c0.223,0.046,0.437,0.194,0.555,0.389c0.167,0.276,0.319,0.558,0.436,0.86c0.067,0.174,0.027,0.392-0.135,0.5
					c-0.046,0.031-0.092,0.058-0.142,0.082c-0.073,0.035-0.146,0.075-0.226,0.092c-0.189,0.04-0.368,0.017-0.547-0.048
					c-0.001,0.001-0.002,0.003-0.003,0.004c-0.081,0.084-0.131,0.132-0.253,0.15c-0.233,0.034-0.481-0.106-0.603-0.304
					C170.382,208.361,170.335,208.226,170.372,208.122z"/>
				<path style="fill:#E14A31;" d="M168.973,202.019c0.667,0,1.29,1.185,0.406,1.185
					C168.713,203.204,168.089,202.019,168.973,202.019z"/>
				<path style="fill:#E14A31;" d="M163.502,216.497c0.008-0.058,0.016-0.116,0.023-0.174c0.016-0.077,0.054-0.139,0.114-0.186
					c0.049-0.059,0.112-0.098,0.189-0.115c0.053-0.008,0.106-0.015,0.159-0.023c0.091-0.003,0.179,0.012,0.262,0.046
					c0.064,0.014,0.123,0.04,0.176,0.078c0.091,0.044,0.17,0.104,0.239,0.179c0.038,0.049,0.077,0.098,0.115,0.148
					c0.062,0.096,0.098,0.201,0.108,0.314l0.024,0.189c0.008,0.107-0.017,0.205-0.077,0.294c-0.036,0.036-0.072,0.071-0.109,0.107
					c-0.093,0.06-0.195,0.089-0.306,0.09c-0.094,0.003-0.185-0.012-0.271-0.048c-0.099-0.025-0.19-0.069-0.272-0.132
					c-0.087-0.056-0.159-0.127-0.217-0.211c-0.063-0.069-0.108-0.149-0.137-0.239C163.485,216.711,163.478,216.605,163.502,216.497z
					"/>
				<path style="fill:#E14A31;" d="M118.614,211.842c0-0.011,0.01-0.133,0.012-0.145c0-0.001,0.001-0.003,0.001-0.005
					s0.001-0.003,0.002-0.004c0-0.001,0.001-0.002,0.001-0.003c0.001-0.002,0.056-0.122,0.056-0.124c0,0,0-0.001,0.001-0.001
					c0.002-0.004,0.005-0.008,0.008-0.011c0.031-0.037,0.067-0.07,0.103-0.102c0.056-0.039,0.117-0.061,0.184-0.064
					c0.027-0.006,0.055,0.003,0.082,0.002c0.01-0.001,0.019-0.003,0.029-0.004c0.021,0.002,0.041,0.004,0.062,0.006
					c0.014,0.003,0.028-0.003,0.042,0.001c0.005,0.001,0.009,0.003,0.014,0.005c0.018,0.002,0.036,0.004,0.054,0.005
					c0.007,0.002,0.014,0.004,0.02,0.007c0.012,0.003,0.024,0.006,0.036,0.007c-0.007-0.001-0.013-0.001-0.02-0.002
					c0.007,0.002,0.014,0.005,0.021,0.007c0.047,0.007,0.095,0.006,0.14,0.024c0.095,0.024,0.182,0.066,0.261,0.126
					c0.05,0.043,0.1,0.086,0.15,0.129c0.067,0.064,0.117,0.139,0.151,0.224c0.03,0.048,0.048,0.1,0.053,0.156
					c0.023,0.074,0.024,0.15,0.003,0.227c-0.02,0.044-0.041,0.089-0.061,0.133c-0.061,0.083-0.141,0.138-0.239,0.165
					c-0.057,0.009-0.114,0.018-0.172,0.025c-0.006,0.001-0.011,0.001-0.017,0.002c-0.009,0.001-0.019,0.001-0.029,0.001
					c-0.004,0-0.009-0.001-0.013-0.001c-0.058-0.005-0.119-0.01-0.178-0.018c-0.002,0-0.004-0.001-0.007-0.001
					c-0.004-0.001-0.008-0.001-0.012-0.002c-0.002-0.001-0.003-0.001-0.005-0.001c-0.001,0-0.002-0.001-0.003-0.001
					c-0.03-0.01-0.061-0.019-0.091-0.029c-0.03-0.009-0.06-0.019-0.09-0.029c-0.003-0.001-0.172-0.097-0.175-0.099
					c-0.002-0.001-0.151-0.13-0.152-0.131c-0.001-0.001-0.114-0.146-0.115-0.148c-0.001-0.002-0.075-0.155-0.075-0.157
					c-0.001-0.002-0.001-0.003-0.002-0.005c0-0.001,0-0.002-0.001-0.003c-0.002-0.007-0.031-0.148-0.032-0.155
					c0-0.002,0-0.003,0-0.005C118.614,211.844,118.614,211.843,118.614,211.842z"/>
				<g>
					<path style="fill:#E14A31;" d="M114.155,203.027c0.01,0.108,0.044,0.207,0.102,0.298c0.036,0.047,0.073,0.093,0.109,0.14
						c0.065,0.072,0.14,0.128,0.227,0.17c0.076,0.05,0.16,0.084,0.251,0.101c0.08,0.021,0.16,0.023,0.239,0.005
						c0.074-0.004,0.143-0.027,0.205-0.071c0.01-0.005,0.021-0.01,0.031-0.016c0.025-0.013,0.05-0.025,0.075-0.038
						c0.001,0,0.002-0.001,0.003-0.001c0.009-0.003,0.018-0.006,0.027-0.009c0.004-0.001,0.007-0.002,0.011-0.003
						c0.048-0.018,0.094-0.039,0.138-0.064c0.043-0.027,0.074-0.062,0.099-0.102c0.003-0.003,0.007-0.005,0.009-0.009l-0.001,0.001
						c0-0.001,0.001-0.001,0.001-0.002c0.001-0.002,0.003-0.003,0.004-0.004c0.027-0.039,0.051-0.085,0.06-0.132
						c0-0.002,0.013-0.145,0.013-0.148c-0.001-0.101-0.056-0.228-0.106-0.311c-0.033-0.053-0.072-0.102-0.115-0.147
						c-0.094-0.099-0.207-0.175-0.331-0.231c-0.002-0.001-0.004-0.002-0.006-0.002c-0.172-0.063-0.134-0.054-0.267-0.067
						c-0.093-0.009-0.133-0.015-0.229,0.011c-0.02,0.01-0.129,0.051-0.16,0.069c-0.005,0.003-0.011,0.006-0.016,0.01
						c-0.014,0.009-0.027,0.02-0.04,0.03c-0.058,0.048-0.111,0.102-0.166,0.153c-0.08,0.056-0.133,0.131-0.158,0.225
						C114.163,202.932,114.159,202.979,114.155,203.027z"/>
					<path style="fill:#E14A31;" d="M114.707,202.397c-0.008,0.002-0.011,0.001-0.02,0.004
						C114.711,202.394,114.714,202.394,114.707,202.397z"/>
				</g>
				<path style="fill:#E14A31;" d="M121.036,202.144c0.061-0.077,0.164-0.135,0.265-0.126c0.07,0.007,0.14,0.014,0.21,0.021
					c0.039,0.004,0.079,0.007,0.119,0.01c0.013-0.095,0.051-0.192,0.133-0.242c0.113-0.069,0.254-0.088,0.383-0.057
					c0.152,0.037,0.309,0.114,0.412,0.234c0.096,0.112,0.178,0.22,0.228,0.36c0.015,0.042,0.025,0.099,0.028,0.144
					c0.001,0.019-0.003,0.095-0.013,0.136c-0.005,0.018-0.03,0.067-0.026,0.059c0.01-0.021-0.017,0.044-0.027,0.058
					c-0.024,0.034-0.069,0.076-0.091,0.092c-0.005,0.004-0.009,0.007-0.015,0.01c-0.025,0.016-0.081,0.04-0.109,0.051
					c-0.004,0.001-0.007,0.003-0.01,0.004c-0.052,0.015-0.108,0.022-0.162,0.024c-0.05,0.003-0.1-0.008-0.15-0.015
					c-0.248,0.002-0.498-0.046-0.743-0.082c-0.063-0.012-0.122-0.035-0.175-0.07c-0.06-0.029-0.113-0.069-0.158-0.118
					c-0.066-0.074-0.116-0.155-0.136-0.253C120.982,202.305,120.983,202.21,121.036,202.144z"/>
				<path style="fill:#E14A31;" d="M124.016,222.883c0.624,0,1.209,1.11,0.38,1.11C123.772,223.993,123.188,222.883,124.016,222.883
					z"/>
				<path style="fill:#E14A31;" d="M131.403,225.507c0.576,0,1.115,1.023,0.351,1.023
					C131.178,226.53,130.639,225.507,131.403,225.507z"/>
				<path style="fill:#E14A31;" d="M144.113,222.352c0.6,0,1.161,1.067,0.365,1.067
					C143.878,223.419,143.316,222.352,144.113,222.352z"/>
				<path style="fill:#E14A31;" d="M140.228,216.776c0.032-0.032,0.065-0.064,0.097-0.095c0.083-0.053,0.174-0.08,0.272-0.08
					c0.053,0.005,0.106,0.01,0.16,0.016c0.118,0.026,0.226,0.074,0.325,0.144c0.073,0.061,0.156,0.122,0.217,0.199
					c0.04,0.05,0.081,0.1,0.117,0.152c0.005,0.008,0.011,0.016,0.016,0.024c0.036,0.059,0.063,0.123,0.091,0.185
					c0.033,0.072,0.045,0.161,0.059,0.236c0.007,0.038,0.008,0.077,0.006,0.115c0.009,0.07-0.004,0.134-0.039,0.193
					c-0.021,0.064-0.061,0.114-0.12,0.151c-0.058,0.041-0.122,0.063-0.192,0.066c-0.074,0.017-0.149,0.015-0.224-0.005
					c-0.053-0.017-0.105-0.034-0.158-0.051c-0.11-0.049-0.206-0.116-0.289-0.203c-0.034-0.044-0.068-0.087-0.102-0.131
					c-0.045-0.071-0.071-0.148-0.085-0.23c-0.021-0.023-0.049-0.039-0.066-0.065c-0.056-0.062-0.096-0.132-0.122-0.212
					c-0.029-0.07-0.037-0.142-0.024-0.214C140.164,216.898,140.185,216.834,140.228,216.776z"/>
				<path style="fill:#E14A31;" d="M153.114,218.208c0.023-0.086,0.07-0.154,0.143-0.204c0.039-0.018,0.078-0.036,0.117-0.055
					c0.043-0.011,0.086-0.016,0.129-0.018c0.001-0.048,0.003-0.095,0.027-0.137c0.019-0.06,0.057-0.106,0.112-0.141
					c0.038-0.017,0.075-0.035,0.113-0.052c0.067-0.021,0.135-0.025,0.203-0.012c0.05,0,0.099,0.01,0.145,0.031
					c0.079,0.02,0.151,0.055,0.217,0.105l0.125,0.108c0.07,0.073,0.123,0.156,0.157,0.251c0.021,0.096,0.048,0.198,0.048,0.298
					c0,0.065-0.006,0.13-0.016,0.194c-0.003,0.02-0.008,0.04-0.016,0.059c-0.019,0.046-0.039,0.093-0.063,0.137
					c-0.004,0.008-0.009,0.016-0.015,0.024c-0.023,0.03-0.086,0.095-0.134,0.122c-0.004,0.002-0.007,0.004-0.011,0.006
					c-0.042,0.02-0.085,0.042-0.128,0.059c-0.009,0.004-0.018,0.007-0.028,0.009c-0.031,0.008-0.066,0.011-0.096,0.016
					c-0.032,0.005-0.066,0.012-0.1,0.013c-0.012,0.001-0.025,0-0.037,0c-0.062-0.004-0.125-0.01-0.187-0.019
					c-0.031-0.004-0.062-0.012-0.092-0.02c-0.083-0.016-0.159-0.046-0.228-0.092c-0.078-0.038-0.147-0.089-0.206-0.154
					c-0.058-0.056-0.102-0.121-0.131-0.195c-0.036-0.062-0.057-0.13-0.06-0.203C153.107,218.294,153.111,218.251,153.114,218.208z"
					/>
				<path style="fill:#E14A31;" d="M157.447,220.092c0.023-0.113,0.047-0.225,0.07-0.338c0.01-0.048,0.033-0.086,0.07-0.115
					c0.03-0.037,0.069-0.06,0.117-0.071c0.033-0.005,0.066-0.009,0.098-0.014c0.056-0.002,0.11,0.007,0.162,0.028
					c0.04,0.009,0.076,0.025,0.109,0.048c0.056,0.027,0.105,0.064,0.148,0.111c0.024,0.03,0.047,0.061,0.071,0.091
					c0.038,0.059,0.06,0.124,0.066,0.194c0.024,0.128,0.048,0.256,0.072,0.384c0.006,0.074-0.012,0.143-0.053,0.205
					c-0.025,0.025-0.051,0.05-0.076,0.075c-0.065,0.042-0.136,0.062-0.213,0.062c-0.066,0.002-0.129-0.009-0.189-0.033
					c-0.069-0.018-0.132-0.048-0.19-0.092c-0.061-0.039-0.111-0.088-0.151-0.147c-0.044-0.048-0.076-0.104-0.096-0.166
					C157.435,220.241,157.43,220.167,157.447,220.092z"/>
				<path style="fill:#E14A31;" d="M160.949,217.143c0.012-0.056,0.039-0.1,0.082-0.134c0.035-0.043,0.081-0.071,0.136-0.083
					l0.159-0.042c0.087-0.023,0.175-0.025,0.263-0.005c0.101,0.022,0.194,0.064,0.279,0.123c0.04,0.034,0.08,0.069,0.12,0.103
					c0.067,0.07,0.118,0.15,0.15,0.241c0.025,0.06,0.032,0.122,0.021,0.184c0.001,0.06-0.016,0.115-0.054,0.165
					c-0.1,0.143-0.295,0.172-0.454,0.137l-0.187-0.042c-0.043-0.014-0.086-0.028-0.128-0.042c-0.068-0.028-0.128-0.067-0.18-0.118
					c-0.039-0.027-0.071-0.06-0.096-0.1c-0.044-0.048-0.076-0.104-0.096-0.166c-0.008-0.038-0.016-0.076-0.023-0.114
					C160.943,217.215,160.946,217.179,160.949,217.143z"/>
				<path style="fill:#E14A31;" d="M129.574,228.495c0.051-0.077,0.118-0.13,0.203-0.158c0.081-0.047,0.17-0.068,0.266-0.064
					c0.143,0,0.28,0.029,0.41,0.087c0.136,0.06,0.269,0.149,0.375,0.258c0.012,0.008,0.027,0.01,0.039,0.019
					c0.051,0.044,0.102,0.088,0.153,0.132c0.039,0.05,0.077,0.1,0.116,0.149c0.05,0.073,0.081,0.152,0.092,0.238
					c0.023,0.076,0.025,0.153,0.003,0.231c-0.01,0.04-0.019,0.081-0.025,0.122c-0.003,0.024-0.005,0.048-0.009,0.071
					c-0.001,0.008-0.003,0.015-0.006,0.023c-0.001,0.002-0.002,0.004-0.002,0.006c-0.011,0.029-0.05,0.116-0.065,0.143
					c-0.002,0.003-0.004,0.007-0.006,0.01c-0.002,0.003-0.005,0.006-0.007,0.009c-0.002,0.002-0.003,0.004-0.005,0.005
					c-0.032,0.035-0.079,0.08-0.114,0.112c-0.009,0.008-0.018,0.015-0.027,0.022c-0.038,0.029-0.078,0.055-0.118,0.081
					c-0.205,0.137-0.477,0.106-0.692,0.013c-0.132-0.059-0.248-0.14-0.349-0.245c-0.091-0.094-0.159-0.203-0.203-0.326
					c-0.016-0.049-0.03-0.099-0.047-0.148c-0.03-0.083-0.045-0.173-0.06-0.259c-0.011-0.065-0.007-0.133-0.009-0.199
					C129.478,228.706,129.507,228.596,129.574,228.495z"/>
				<path style="fill:#E14A31;" d="M113.855,209.213c0.023-0.057,0.049-0.118,0.079-0.173c0.005-0.008,0.009-0.016,0.016-0.023
					c0.04-0.049,0.09-0.093,0.137-0.136c0.007-0.007,0.014-0.013,0.021-0.019c0.016-0.012,0.033-0.022,0.051-0.031
					c0.067-0.034,0.139-0.074,0.214-0.093c0.08-0.02,0.164-0.031,0.246-0.036c0.027-0.002,0.055-0.001,0.082,0.001
					c0.094,0.008,0.192,0.013,0.285,0.034c0.016,0.004,0.031,0.008,0.047,0.012c0.008,0.002,0.016,0.005,0.024,0.008
					c0.048,0.015,0.163,0.048,0.21,0.068c0.003,0.001,0.005,0.002,0.008,0.004c0.067,0.038,0.134,0.076,0.201,0.114
					c0.016,0.011,0.031,0.023,0.046,0.035c0.007,0.006,0.015,0.012,0.022,0.018c0.008,0.007,0.025,0.021,0.038,0.032
					c0.015,0.009,0.032,0.016,0.047,0.025c0.112,0.07,0.204,0.186,0.278,0.292c0.044,0.063,0.078,0.136,0.102,0.209
					c0.018,0.055,0.028,0.115,0.037,0.172c0.003,0.016,0.004,0.033,0.004,0.049c-0.001,0.169-0.039,0.296-0.125,0.442
					c-0.024,0.04-0.052,0.077-0.083,0.112c-0.059,0.066-0.122,0.131-0.193,0.186c-0.082,0.064-0.184,0.11-0.28,0.146
					c-0.021,0.008-0.043,0.013-0.065,0.017c-0.071,0.013-0.149,0.03-0.223,0.028c-0.068-0.002-0.139-0.01-0.206-0.02
					c-0.01-0.001-0.02-0.003-0.029-0.005c-0.071-0.017-0.141-0.042-0.209-0.067c-0.01-0.004-0.02-0.007-0.029-0.011
					c-0.008-0.004-0.016-0.008-0.023-0.012c-0.069-0.037-0.141-0.073-0.206-0.117c-0.008-0.005-0.015-0.011-0.023-0.017
					c-0.062-0.049-0.124-0.101-0.181-0.156c-0.061-0.059-0.111-0.133-0.16-0.2c-0.011-0.016-0.022-0.031-0.031-0.048
					c-0.039-0.071-0.076-0.146-0.106-0.222c-0.007-0.019-0.013-0.038-0.018-0.057c-0.022-0.089-0.05-0.19-0.046-0.285
					C113.82,209.4,113.821,209.298,113.855,209.213z"/>
				<path style="fill:#E14A31;" d="M131.705,204.399l0.104-0.102c0.089-0.057,0.186-0.085,0.292-0.086
					c0.09-0.003,0.176,0.012,0.259,0.045c0.094,0.024,0.181,0.066,0.26,0.126c0.083,0.054,0.152,0.121,0.207,0.202
					c0.06,0.066,0.103,0.142,0.131,0.228c0.011,0.052,0.021,0.104,0.032,0.156c0.008,0.102-0.016,0.196-0.073,0.281l-0.104,0.102
					c-0.089,0.057-0.186,0.085-0.292,0.085c-0.09,0.003-0.176-0.012-0.259-0.046c-0.094-0.024-0.181-0.066-0.26-0.126
					c-0.083-0.054-0.152-0.121-0.207-0.202c-0.06-0.066-0.103-0.142-0.131-0.228c-0.011-0.052-0.021-0.104-0.032-0.156
					C131.624,204.577,131.648,204.484,131.705,204.399z"/>
				<path style="fill:#E14A31;" d="M160.873,208.481c0.003-0.023,0.007-0.046,0.014-0.069c0.02-0.068,0.054-0.135,0.085-0.197
					c0.01-0.019,0.02-0.037,0.034-0.054c0.044-0.055,0.097-0.106,0.151-0.15c0.056-0.045,0.131-0.071,0.195-0.099
					c0.022-0.009,0.043-0.017,0.066-0.022c0.078-0.017,0.161-0.031,0.242-0.032c0.09-0.001,0.181,0.011,0.269,0.025
					c0.116,0.018,0.222,0.068,0.323,0.125c0.045,0.025,0.091,0.049,0.135,0.078c0.034,0.022,0.065,0.046,0.096,0.072
					c0.05,0.043,0.1,0.086,0.15,0.129c0.067,0.065,0.117,0.139,0.151,0.224c0.037,0.077,0.067,0.169,0.07,0.26
					c0.035,0.06,0.068,0.12,0.096,0.187c0.031,0.075,0.045,0.158,0.058,0.237c0.013,0.077,0.002,0.159-0.009,0.235
					c-0.006,0.038-0.017,0.074-0.032,0.109c-0.032,0.074-0.063,0.152-0.115,0.216c-0.069,0.084-0.157,0.174-0.256,0.226
					c-0.138,0.071-0.247,0.109-0.405,0.115c-0.075,0.003-0.152-0.007-0.226-0.021c-0.078-0.014-0.156-0.043-0.229-0.072
					c-0.079-0.031-0.153-0.079-0.224-0.124c-0.073-0.046-0.137-0.109-0.201-0.166c-0.082-0.073-0.149-0.164-0.211-0.255
					c-0.061-0.09-0.106-0.193-0.148-0.292c-0.021-0.05-0.036-0.101-0.048-0.154c-0.022-0.1-0.049-0.205-0.049-0.309
					C160.855,208.63,160.863,208.555,160.873,208.481z"/>
				<path style="fill:#E14A31;" d="M172.027,197.81c0.011-0.042,0.033-0.08,0.053-0.119c0,0,0-0.001,0-0.001
					c-0.009,0.019-0.018,0.039-0.027,0.058c0.014-0.031,0.019-0.064,0.026-0.096c-0.001-0.01,0.001-0.021-0.001-0.031
					c-0.007-0.058,0.003-0.112,0.032-0.16c0.017-0.053,0.051-0.095,0.1-0.126c0.034-0.016,0.067-0.031,0.101-0.047
					c0.06-0.019,0.121-0.022,0.182-0.011c0.045,0,0.088,0.009,0.13,0.028c0.071,0.018,0.135,0.049,0.195,0.094
					c0.037,0.032,0.075,0.064,0.112,0.096c0.063,0.065,0.11,0.14,0.141,0.225c0.013,0.054,0.025,0.108,0.033,0.163
					c0.003,0.018,0.005,0.036,0.005,0.055c0.001,0.017,0,0.034-0.001,0.051c-0.004,0.053-0.006,0.107-0.016,0.16
					c-0.003,0.016-0.007,0.033-0.012,0.048c-0.003,0.008-0.005,0.017-0.008,0.025c-0.001,0.004-0.003,0.007-0.004,0.011
					c-0.001,0.002-0.002,0.004-0.002,0.005c-0.016,0.034-0.031,0.068-0.047,0.103c-0.005,0.007-0.011,0.014-0.017,0.02
					c-0.031,0.031-0.062,0.063-0.094,0.092c-0.013,0.012-0.028,0.023-0.042,0.034c-0.033,0.015-0.066,0.031-0.1,0.046
					c-0.059,0.018-0.119,0.022-0.18,0.011c-0.045,0-0.087-0.009-0.128-0.027c-0.07-0.018-0.134-0.049-0.192-0.093l-0.111-0.095
					l-0.084-0.108c-0.036-0.052-0.059-0.11-0.067-0.172c-0.017-0.055-0.018-0.11-0.002-0.167
					C172.011,197.858,172.02,197.834,172.027,197.81z"/>
			</g>
		</g>
		<path style="fill:#C4C6C8;" d="M284.768,171.134c-4.606-0.576-9.789-0.576-17.85-4.031c-8.061-3.455-27.062-4.606-41.457-1.727
			c-14.395,2.879-19.916,11.274-21.592,12.955c-2.801,2.81-10.364,3.455-11.804,3.167c-1.439,0.288-9.003-0.357-11.804-3.167
			c-1.676-1.681-7.197-10.076-21.592-12.955c-14.395-2.879-33.396-1.727-41.457,1.727c-8.061,3.455-13.243,3.455-17.85,4.031
			c-4.606,0.576-4.606,4.031-4.606,4.031c0.576,8.637,3.616,7.808,5.182,10.94c0.576,1.152,1.152,7.485,1.727,15.547
			c0.576,8.061,7.485,21.304,18.425,25.911c10.94,4.606,32.245,6.91,45.488,0c13.243-6.91,16.122-23.032,18.426-31.093
			c2.303-8.061,8.061-6.334,8.061-6.334s5.758-1.727,8.061,6.334c2.303,8.061,5.182,24.184,18.425,31.093
			c13.243,6.91,34.548,4.606,45.488,0c10.94-4.606,17.85-17.85,18.426-25.911c0.576-8.061,1.152-14.395,1.727-15.547
			c1.566-3.133,4.606-2.303,5.182-10.94C289.375,175.165,289.375,171.71,284.768,171.134z M162.411,223.244
			c-13.243,6.91-34.548,5.758-45.488-2.879c-10.94-8.637-10.94-28.214-9.789-35.699c0,0,0-9.789,17.274-12.667
			c17.274-2.879,32.82-3.455,44.912,4.606c0,0,7.485,4.031,8.061,13.819C177.958,200.212,175.655,216.334,162.411,223.244z
			 M267.207,220.365c-10.94,8.637-32.245,9.789-45.488,2.879c-13.243-6.91-15.547-23.032-14.971-32.82
			c0.576-9.789,8.061-13.819,8.061-13.819c12.092-8.061,27.638-7.485,44.912-4.606c17.274,2.879,17.274,12.667,17.274,12.667
			C278.147,192.151,278.147,211.728,267.207,220.365z"/>
	</g>
</g>
</svg>
